<svg width="146" height="144" viewBox="0 0 146 144" fill="none" xmlns="http://www.w3.org/2000/svg">
<path d="M58.6447 114.127H56.7456C56.5947 114.127 56.4474 114.08 56.3242 113.993C56.2009 113.905 56.1079 113.782 56.0579 113.639C55.9125 113.22 55.7405 112.811 55.543 112.415C55.4749 112.278 55.4516 112.122 55.4764 111.971C55.5013 111.82 55.573 111.68 55.6814 111.572L57.0312 110.219C57.1683 110.081 57.2453 109.894 57.2453 109.7C57.2453 109.505 57.1683 109.319 57.0312 109.181L54.1152 106.258C53.9779 106.121 53.7918 106.044 53.5978 106.044C53.4038 106.044 53.2177 106.121 53.0804 106.258L51.7065 107.637C51.5995 107.744 51.4617 107.816 51.3123 107.841C51.1628 107.866 51.0093 107.844 50.873 107.778C50.4851 107.588 50.0856 107.423 49.6769 107.283C49.5328 107.234 49.4078 107.141 49.3194 107.017C49.231 106.893 49.1835 106.744 49.1838 106.591V104.639C49.1838 104.543 49.1649 104.447 49.1282 104.358C49.0915 104.269 49.0376 104.188 48.9697 104.12C48.9018 104.052 48.8212 103.998 48.7324 103.961C48.6437 103.924 48.5486 103.905 48.4526 103.906H44.33C44.234 103.905 44.1389 103.924 44.0502 103.961C43.9614 103.998 43.8808 104.052 43.8129 104.12C43.745 104.188 43.6911 104.269 43.6544 104.358C43.6177 104.447 43.5988 104.543 43.5988 104.639V106.591C43.5991 106.744 43.5517 106.893 43.4633 107.017C43.3749 107.141 43.2499 107.234 43.1059 107.283C42.6972 107.423 42.2977 107.588 41.9098 107.778C41.7735 107.844 41.6199 107.866 41.4705 107.841C41.3211 107.816 41.1833 107.744 41.0763 107.637L39.7022 106.258C39.5649 106.121 39.3788 106.044 39.1848 106.044C38.9907 106.044 38.8046 106.121 38.6674 106.258L35.7515 109.181C35.6144 109.319 35.5373 109.506 35.5373 109.7C35.5373 109.895 35.6144 110.082 35.7515 110.219L37.1012 111.573C37.2097 111.681 37.2814 111.82 37.3062 111.972C37.3311 112.123 37.3077 112.278 37.2396 112.415C37.042 112.812 36.8705 113.221 36.7259 113.639C36.6756 113.782 36.5823 113.906 36.4589 113.993C36.3355 114.081 36.1882 114.128 36.0371 114.128H34.1377C34.0417 114.128 33.9466 114.146 33.8579 114.183C33.7691 114.22 33.6885 114.274 33.6206 114.342C33.5527 114.41 33.4988 114.491 33.4621 114.58C33.4254 114.669 33.4065 114.765 33.4065 114.861V118.996C33.4065 119.093 33.4254 119.188 33.4621 119.277C33.4988 119.366 33.5527 119.447 33.6206 119.515C33.6885 119.583 33.7691 119.637 33.8579 119.674C33.9466 119.711 34.0417 119.73 34.1377 119.73H35.9875C36.1413 119.729 36.2913 119.778 36.4159 119.868C36.5405 119.959 36.6335 120.086 36.6815 120.233C36.8243 120.663 36.995 121.083 37.1925 121.49C37.2596 121.628 37.2823 121.782 37.2575 121.933C37.2327 122.084 37.1616 122.223 37.0542 122.332L35.7519 123.638C35.684 123.706 35.6301 123.787 35.5933 123.876C35.5566 123.965 35.5377 124.06 35.5377 124.156C35.5377 124.252 35.5566 124.348 35.5933 124.437C35.6301 124.525 35.684 124.606 35.7519 124.674L38.6678 127.599C38.805 127.736 38.9911 127.814 39.1852 127.814C39.3792 127.814 39.5653 127.736 39.7026 127.599L40.9793 126.318C41.0881 126.209 41.2283 126.138 41.3799 126.113C41.5316 126.089 41.6871 126.113 41.8244 126.182C42.2374 126.389 42.6641 126.568 43.1013 126.716C43.2462 126.766 43.3722 126.859 43.4615 126.984C43.5509 127.108 43.599 127.258 43.5993 127.411V129.217C43.5992 129.313 43.618 129.409 43.6547 129.498C43.6914 129.587 43.7453 129.668 43.8132 129.736C43.8811 129.804 43.9617 129.859 44.0505 129.896C44.1393 129.932 44.2345 129.951 44.3306 129.952H48.4526C48.5487 129.952 48.6439 129.933 48.7327 129.896C48.8214 129.859 48.9021 129.805 48.97 129.736C49.0379 129.668 49.0918 129.587 49.1285 129.498C49.1651 129.409 49.184 129.313 49.1838 129.217V127.411C49.1841 127.258 49.2323 127.108 49.3216 126.984C49.4109 126.859 49.5369 126.766 49.6819 126.716C50.1191 126.568 50.5457 126.389 50.9587 126.182C51.096 126.113 51.2515 126.089 51.4032 126.113C51.5549 126.138 51.6951 126.209 51.8039 126.318L53.0806 127.599C53.2178 127.736 53.4039 127.814 53.598 127.814C53.792 127.814 53.9781 127.736 54.1154 127.599L57.0314 124.674C57.0993 124.606 57.1531 124.525 57.1899 124.437C57.2266 124.348 57.2455 124.252 57.2455 124.156C57.2455 124.06 57.2266 123.965 57.1899 123.876C57.1531 123.787 57.0993 123.706 57.0314 123.638L55.729 122.332C55.6215 122.223 55.5505 122.084 55.5257 121.933C55.5009 121.782 55.5236 121.628 55.5906 121.49C55.7883 121.083 55.959 120.663 56.1017 120.233C56.1497 120.087 56.2426 119.959 56.3673 119.869C56.4919 119.778 56.6418 119.73 56.7957 119.73H58.6449C58.7409 119.73 58.836 119.711 58.9247 119.674C59.0134 119.637 59.0941 119.583 59.162 119.515C59.2299 119.447 59.2837 119.366 59.3205 119.277C59.3572 119.188 59.3761 119.093 59.3761 118.996V114.861C59.3762 114.765 59.3573 114.669 59.3206 114.58C59.2839 114.491 59.23 114.41 59.1621 114.342C59.0942 114.274 59.0135 114.22 58.9247 114.183C58.8359 114.146 58.7408 114.127 58.6447 114.127ZM46.3918 123.039C45.1866 123.039 44.0085 122.681 43.0064 122.009C42.0043 121.338 41.2233 120.384 40.7621 119.267C40.3009 118.15 40.1802 116.921 40.4153 115.736C40.6504 114.55 41.2308 113.461 42.083 112.607C42.9352 111.752 44.021 111.17 45.203 110.934C46.3851 110.698 47.6103 110.819 48.7238 111.282C49.8372 111.745 50.7889 112.528 51.4585 113.533C52.1281 114.538 52.4855 115.719 52.4855 116.928C52.4855 118.549 51.8435 120.103 50.7007 121.249C49.5579 122.396 48.008 123.039 46.3918 123.039Z" fill="#F4F4F4"/>
<path d="M34.9258 89.4912H32.3404C32.1349 89.4915 31.9344 89.4277 31.7666 89.3087C31.5989 89.1896 31.4722 89.0212 31.4041 88.8267C31.2062 88.2568 30.9721 87.7003 30.7033 87.1603C30.6104 86.9736 30.5786 86.7622 30.6124 86.5563C30.6462 86.3504 30.7438 86.1604 30.8914 86.0133L32.7292 84.1704C32.9159 83.983 33.0207 83.7289 33.0207 83.464C33.0207 83.1991 32.9159 82.945 32.7292 82.7576L28.7592 78.778C28.5724 78.5908 28.319 78.4856 28.0548 78.4856C27.7907 78.4856 27.5374 78.5908 27.3505 78.778L25.4798 80.6541C25.3342 80.8008 25.1465 80.8981 24.943 80.9326C24.7395 80.9671 24.5304 80.9369 24.3448 80.8464C23.8168 80.5877 23.2729 80.3629 22.7165 80.1732C22.5205 80.1062 22.3503 79.9793 22.2299 79.8103C22.1095 79.6412 22.0449 79.4386 22.0453 79.2309V76.5731C22.0453 76.442 22.0196 76.3122 21.9696 76.191C21.9196 76.0699 21.8462 75.9598 21.7538 75.8671C21.6613 75.7744 21.5516 75.7008 21.4308 75.6507C21.31 75.6005 21.1805 75.5747 21.0498 75.5747H15.4377C15.307 75.5747 15.1775 75.6005 15.0567 75.6507C14.9359 75.7008 14.8261 75.7744 14.7337 75.8671C14.6413 75.9598 14.5679 76.0699 14.5179 76.191C14.4679 76.3122 14.4421 76.442 14.4422 76.5731V79.2309C14.4425 79.4386 14.378 79.6412 14.2576 79.8103C14.1372 79.9793 13.967 80.1062 13.7709 80.1732C13.2145 80.3629 12.6706 80.5878 12.1425 80.8464C11.9569 80.937 11.7477 80.9672 11.5442 80.9327C11.3407 80.8982 11.153 80.8008 11.0073 80.6541L9.13663 78.778C8.94976 78.5908 8.69641 78.4856 8.43226 78.4856C8.1681 78.4856 7.91476 78.5908 7.72788 78.778L3.75813 82.7576C3.57144 82.945 3.46657 83.1991 3.46657 83.464C3.46657 83.7289 3.57144 83.983 3.75813 84.1704L5.59566 86.0133C5.74332 86.1604 5.841 86.3504 5.87482 86.5563C5.90863 86.7622 5.87686 86.9736 5.78403 87.1603C5.51507 87.7 5.28151 88.2566 5.08483 88.8267C5.01619 89.0212 4.88914 89.1895 4.72116 89.3084C4.55318 89.4274 4.35255 89.4913 4.1469 89.4912H1.56146C1.43072 89.4911 1.30124 89.5169 1.18044 89.567C1.05963 89.6171 0.949864 89.6907 0.857408 89.7834C0.764951 89.8761 0.691619 89.9862 0.641604 90.1073C0.591588 90.2284 0.565869 90.3583 0.565918 90.4894V96.1196C0.565845 96.2507 0.591546 96.3806 0.64155 96.5018C0.691555 96.6229 0.764883 96.733 0.857342 96.8258C0.949801 96.9185 1.05958 96.992 1.18039 97.0422C1.30121 97.0923 1.4307 97.1181 1.56146 97.118H4.07892C4.28829 97.1179 4.49235 97.1841 4.66197 97.3072C4.8316 97.4303 4.95813 97.604 5.02353 97.8035C5.21773 98.3888 5.45013 98.9606 5.7192 99.5154C5.81047 99.7022 5.84137 99.9129 5.80761 100.118C5.77384 100.323 5.6771 100.513 5.53084 100.661L3.75776 102.439C3.66524 102.531 3.59185 102.641 3.54177 102.763C3.49169 102.884 3.46592 103.013 3.46592 103.145C3.46592 103.276 3.49169 103.406 3.54177 103.527C3.59185 103.648 3.66524 103.758 3.75776 103.85L7.72751 107.832C7.91439 108.019 8.16773 108.124 8.43189 108.124C8.69604 108.124 8.94938 108.019 9.13626 107.832L10.8745 106.088C11.0226 105.94 11.2135 105.843 11.42 105.809C11.6265 105.776 11.8383 105.809 12.0253 105.903C12.5875 106.184 13.1683 106.427 13.7635 106.63C13.9609 106.697 14.1323 106.824 14.2539 106.994C14.3755 107.163 14.4412 107.367 14.4416 107.576V110.034C14.4414 110.166 14.467 110.296 14.517 110.417C14.5669 110.538 14.6402 110.649 14.7327 110.741C14.8251 110.834 14.9349 110.908 15.0558 110.958C15.1767 111.009 15.3063 111.034 15.4372 111.034H21.0492C21.1801 111.034 21.3097 111.009 21.4305 110.958C21.5514 110.908 21.6612 110.834 21.7537 110.741C21.8462 110.649 21.9195 110.538 21.9694 110.417C22.0193 110.296 22.045 110.166 22.0448 110.034V107.576C22.0451 107.367 22.1107 107.163 22.2323 106.994C22.354 106.824 22.5255 106.697 22.7228 106.63C23.318 106.427 23.8988 106.184 24.4611 105.903C24.6481 105.809 24.8598 105.776 25.0664 105.809C25.2729 105.843 25.4638 105.94 25.6118 106.088L27.3499 107.832C27.5368 108.019 27.7901 108.124 28.0543 108.124C28.3184 108.124 28.5718 108.019 28.7587 107.832L32.7286 103.85C32.8211 103.758 32.8945 103.648 32.9446 103.527C32.9947 103.406 33.0205 103.276 33.0205 103.145C33.0205 103.013 32.9947 102.884 32.9446 102.763C32.8945 102.641 32.8211 102.531 32.7286 102.439L30.9555 100.661C30.8093 100.513 30.7125 100.323 30.6788 100.118C30.645 99.9129 30.6759 99.7022 30.7672 99.5154C31.0362 98.9606 31.2686 98.3887 31.4628 97.8035C31.5282 97.604 31.6548 97.4303 31.8244 97.3072C31.994 97.1841 32.1981 97.1179 32.4074 97.118H34.9249C35.0557 97.1181 35.1852 97.0923 35.306 97.0422C35.4268 96.992 35.5366 96.9185 35.629 96.8258C35.7215 96.733 35.7948 96.6229 35.8448 96.5018C35.8948 96.3806 35.9205 96.2507 35.9204 96.1196V90.4894C35.9205 90.3584 35.8948 90.2286 35.8449 90.1075C35.7949 89.9864 35.7216 89.8764 35.6293 89.7837C35.5369 89.691 35.4273 89.6175 35.3066 89.5673C35.1859 89.5171 35.0565 89.4912 34.9258 89.4912ZM18.2437 101.624C16.6029 101.624 14.9989 101.136 13.6345 100.222C12.2702 99.3077 11.2068 98.0082 10.5789 96.4879C9.95093 94.9675 9.78662 93.2946 10.1067 91.6806C10.4268 90.0666 11.217 88.5841 12.3772 87.4204C13.5375 86.2568 15.0158 85.4644 16.6251 85.1434C18.2344 84.8223 19.9025 84.9871 21.4185 85.6169C22.9344 86.2466 24.2301 87.3131 25.1417 88.6814C26.0533 90.0497 26.5398 91.6583 26.5398 93.3039C26.5397 95.5105 25.6656 97.6267 24.1098 99.187C22.554 100.747 20.444 101.624 18.2437 101.624Z" fill="#F4F4F4"/>
<path d="M20.2078 106.427L19.8879 106.462L23.8365 142.649L24.1563 142.614L20.2078 106.427Z" fill="#292A2E"/>
<path d="M30.4344 122.225L28.4919 141.498L28.812 141.53L30.7545 122.257L30.4344 122.225Z" fill="#292A2E"/>
<path d="M33.7749 139.168H19.3613V143.859H33.7749V139.168Z" fill="#292A2E"/>
<path opacity="0.2" d="M33.7749 139.168H19.3613V143.859H33.7749V139.168Z" fill="white"/>
<path d="M42.4643 130.53C45.1947 126.89 43.8931 121.288 39.557 118.016C35.2209 114.744 29.4923 115.042 26.7618 118.681C24.0314 122.321 25.333 127.923 29.6691 131.195C34.0052 134.467 39.7338 134.169 42.4643 130.53Z" fill="#0CBC8B"/>
<path opacity="0.2" d="M42.4643 130.53C45.1947 126.89 43.8931 121.288 39.557 118.016C35.2209 114.744 29.4923 115.042 26.7618 118.681C24.0314 122.321 25.333 127.923 29.6691 131.195C34.0052 134.467 39.7338 134.169 42.4643 130.53Z" fill="white"/>
<path opacity="0.5" d="M42.4636 130.531C42.2802 130.776 42.0802 131.009 41.8648 131.227C38.8591 133.152 34.4226 132.849 30.9031 130.193C26.5674 126.922 25.266 121.319 27.9969 117.679C28.1804 117.434 28.3799 117.202 28.5942 116.984C31.6014 115.056 36.0364 115.361 39.5574 118.016C43.8929 121.288 45.1943 126.891 42.4636 130.531Z" fill="white"/>
<path d="M22.3486 116.722C26.6441 113.396 27.8116 107.693 24.9563 103.983C22.1009 100.274 16.304 99.9621 12.0084 103.287C7.71292 106.613 6.54544 112.316 9.40079 116.026C12.2562 119.736 18.0531 120.047 22.3486 116.722Z" fill="#0CBC8B"/>
<path opacity="0.2" d="M20.988 115.768C17.6614 118.345 13.4336 118.737 10.369 117.06C10.0144 116.747 9.69042 116.4 9.40162 116.025C6.54576 112.316 7.71318 106.612 12.0085 103.287C15.3352 100.712 19.563 100.318 22.6261 101.994C22.9815 102.307 23.3059 102.654 23.5948 103.031C26.4508 106.739 25.2834 112.443 20.988 115.768Z" fill="white"/>
<path d="M136.118 82.478H87.7789C86.6288 82.478 85.6965 83.413 85.6965 84.5665V108.622C85.6965 109.775 86.6288 110.71 87.7789 110.71H136.118C137.268 110.71 138.201 109.775 138.201 108.622V84.5665C138.201 83.413 137.268 82.478 136.118 82.478Z" fill="#F4F4F4"/>
<path d="M117.662 98.5093H114.311C114.107 98.5093 113.941 98.6752 113.941 98.8799V106.329C113.941 106.534 114.107 106.7 114.311 106.7H117.662C117.866 106.7 118.032 106.534 118.032 106.329V98.8799C118.032 98.6752 117.866 98.5093 117.662 98.5093Z" fill="white"/>
<path d="M125.738 90.6909H122.387C122.183 90.6909 122.018 90.8568 122.018 91.0615V106.329C122.018 106.534 122.183 106.7 122.387 106.7H125.738C125.942 106.7 126.108 106.534 126.108 106.329V91.0615C126.108 90.8568 125.942 90.6909 125.738 90.6909Z" fill="white"/>
<path d="M133.815 96.6733H130.464C130.259 96.6733 130.094 96.8393 130.094 97.0439V106.329C130.094 106.534 130.259 106.7 130.464 106.7H133.815C134.019 106.7 134.184 106.534 134.184 106.329V97.0439C134.184 96.8393 134.019 96.6733 133.815 96.6733Z" fill="white"/>
<path d="M93.4338 98.5093H90.0826C89.8786 98.5093 89.7131 98.6752 89.7131 98.8799V106.329C89.7131 106.534 89.8786 106.7 90.0826 106.7H93.4338C93.6378 106.7 93.8033 106.534 93.8033 106.329V98.8799C93.8033 98.6752 93.6378 98.5093 93.4338 98.5093Z" fill="white"/>
<path d="M101.51 90.6909H98.1588C97.9547 90.6909 97.7893 90.8568 97.7893 91.0615V106.329C97.7893 106.534 97.9547 106.7 98.1588 106.7H101.51C101.714 106.7 101.879 106.534 101.879 106.329V91.0615C101.879 90.8568 101.714 90.6909 101.51 90.6909Z" fill="white"/>
<path d="M109.586 96.6733H106.235C106.031 96.6733 105.865 96.8393 105.865 97.0439V106.329C105.865 106.534 106.031 106.7 106.235 106.7H109.586C109.79 106.7 109.956 106.534 109.956 106.329V97.0439C109.956 96.8393 109.79 96.6733 109.586 96.6733Z" fill="white"/>
<path d="M115.812 9.94701C115.812 9.94701 113.895 8.28303 113.63 4.73124C113.425 1.98208 115.812 3.91392 115.812 3.91392C115.812 3.91392 115.684 1.9323 117.097 2.22356C118.51 2.51482 119.172 4.6313 119.172 4.6313" fill="#0C0C0C"/>
<path d="M124.456 2.94922C124.456 2.94922 131.485 4.18615 128.283 13.6354H126.376" fill="#0C0C0C"/>
<g opacity="0.5">
<path d="M129.1 135.564C129.1 135.564 128.264 139.911 124.205 140.154C120.147 140.397 121.027 143.639 121.027 143.639H136.536V135.868L129.1 135.564Z" fill="#A073F0"/>
<path d="M137.589 56.2606C137.589 56.2606 137.54 54.9538 137.55 57.9183C137.589 68.976 137.221 138.339 137.221 138.339L127.03 138.253L120.856 55.8113L137.589 56.2606Z" fill="#A073F0"/>
<path d="M111.697 135.564C111.697 135.564 110.861 139.911 106.802 140.154C102.743 140.397 103.624 143.639 103.624 143.639H119.133V135.868L111.697 135.564Z" fill="#A073F0"/>
<path d="M109.726 57.1191C109.726 57.1191 108.452 94.9118 108.585 96.7589L109.782 138.052L119.805 138.238L121.421 95.2647C121.421 95.2647 122.481 83.4108 125.337 72.4034C126.798 66.7541 127.677 60.9693 127.961 55.1399L109.726 57.1191Z" fill="#A073F0"/>
<path d="M122.949 83.9141L122.113 71.0955C122.113 71.0955 121.255 76.4245 121.255 81.0179C121.255 83.2631 121.716 92.1523 121.716 92.1523L122.949 83.9141Z" fill="#0A0A0A"/>
</g>
<path d="M116.54 23.459C116.571 23.4549 116.918 29.2157 123.591 28.7134C128.21 28.3664 129.857 23.4508 129.963 23.4508C129.465 23.3448 128.85 23.1835 128.605 23.1284C128.072 23.0043 127.589 22.7203 127.221 22.3143C126.852 21.9082 126.616 21.3993 126.543 20.8553C126.408 20.038 126.637 15.8611 126.567 15.0349L119.476 16.6224C119.575 18.3671 120.268 22.4123 117.837 23.1282C117.433 23.2467 116.997 23.3556 116.54 23.459Z" fill="#FFC3BD"/>
<path opacity="0.52" d="M119.376 21.4752C119.487 21.1161 119.559 20.746 119.589 20.3713C119.667 19.5164 119.652 18.6556 119.543 17.8042C120.984 17.609 122.342 17.0124 123.462 16.082C123.594 16.5698 124.318 18.7012 124.118 19.1642C123.739 20.0404 121.958 21.4752 119.376 21.4752Z" fill="#0C0C0C"/>
<path d="M120.635 20.0834C123.443 20.0199 126.902 18.4755 127.204 14.6789L127.477 11.2531C127.779 7.45627 126.035 4.21933 122.471 3.93439C118.906 3.64907 115.997 6.51376 115.695 10.3106L115.574 11.8272C115.542 12.3487 115.545 12.8717 115.583 13.3928C115.676 14.7707 115.82 16.8664 116.65 18.3325C117.434 19.7167 118.841 20.1239 120.635 20.0834Z" fill="#FFC3BD"/>
<path opacity="0.52" d="M119.572 16.523C118.994 16.5104 118.427 16.3619 117.917 16.0893C117.896 16.0784 117.88 16.0594 117.872 16.0366C117.865 16.0138 117.867 15.989 117.878 15.9676C117.889 15.9462 117.907 15.93 117.93 15.9226C117.953 15.9152 117.978 15.9171 117.999 15.928C119.1 16.4886 120.133 16.4868 120.988 15.9228C121.005 15.9108 121.023 15.8998 121.041 15.8898C121.063 15.8792 121.088 15.8777 121.11 15.8856C121.133 15.8934 121.151 15.9099 121.162 15.9315C121.172 15.953 121.174 15.9779 121.166 16.0006C121.158 16.0233 121.142 16.042 121.12 16.0525C121.113 16.0562 121.102 16.0638 121.087 16.074C120.638 16.3716 120.11 16.5279 119.572 16.523Z" fill="#0C0C0C"/>
<path opacity="0.52" d="M119.541 17.3807C119.437 17.3802 119.333 17.3706 119.23 17.3523C119.218 17.3502 119.207 17.3459 119.197 17.3395C119.187 17.3331 119.178 17.3249 119.171 17.3151C119.165 17.3054 119.16 17.2944 119.157 17.2828C119.155 17.2712 119.154 17.2592 119.156 17.2475C119.158 17.2358 119.163 17.2246 119.169 17.2146C119.175 17.2045 119.184 17.1959 119.193 17.189C119.203 17.1822 119.214 17.1774 119.226 17.1748C119.237 17.1722 119.249 17.1719 119.261 17.1739C119.88 17.2824 120.197 17.0159 120.21 17.0044C120.228 16.9885 120.251 16.9805 120.275 16.9821C120.299 16.9837 120.321 16.9948 120.337 17.0128C120.353 17.0309 120.361 17.0545 120.359 17.0784C120.358 17.1024 120.347 17.1247 120.329 17.1405C120.102 17.3094 119.824 17.3943 119.541 17.3807Z" fill="#0C0C0C"/>
<path d="M116.752 12.6391C116.995 12.6391 117.193 12.4413 117.193 12.1973C117.193 11.9534 116.995 11.7556 116.752 11.7556C116.509 11.7556 116.312 11.9534 116.312 12.1973C116.312 12.4413 116.509 12.6391 116.752 12.6391Z" fill="#0C0C0C"/>
<path d="M121.204 12.6669C121.448 12.6669 121.645 12.4691 121.645 12.2252C121.645 11.9812 121.448 11.7834 121.204 11.7834C120.961 11.7834 120.764 11.9812 120.764 12.2252C120.764 12.4691 120.961 12.6669 121.204 12.6669Z" fill="#0C0C0C"/>
<path d="M126.891 15.8179C127.974 15.9046 128.945 14.8127 129.031 13.7263C129.117 12.6398 128.287 11.9705 127.204 11.8838L126.587 12.5672L125.959 15.7436L126.891 15.8179Z" fill="#FFC3BD"/>
<path d="M108.249 36.1417C108.459 38.6182 109.482 54.0688 109.684 57.1193H137.535C137.693 54.3681 138.399 42.3377 138.996 36.9578C139.565 31.8239 140.683 29.2536 139.864 27.7358C138.525 25.2553 134.868 23.8218 132.374 23.4832C130.852 23.2766 128.561 23.1284 128.561 23.1284C128.561 23.1284 128.367 27.0627 123.743 27.2817C117.448 27.5789 117.869 23.1284 117.838 23.1284C116.818 23.1284 110.992 23.7758 109.567 24.623C105.684 26.9295 107.803 30.8937 108.249 36.1417Z" fill="#A073F0"/>
<path d="M125.929 13.9982C125.929 13.9982 125.922 8.59667 124.318 8.15532C123.25 7.86146 120.521 9.22526 118.121 8.59667C117.07 8.32157 116.042 8.51791 115.906 9.01499C115.852 9.21189 115.381 6.29927 117.192 4.23462C118.635 2.59089 123.008 2.39325 124.946 3.09428C130.31 5.03522 127.411 12.1356 127.411 12.1356L127.044 13.9731L125.929 13.9982Z" fill="#0C0C0C"/>
<g opacity="0.52">
<path d="M119.002 15.2101H118.995C118.646 15.1831 118.063 15.0986 118.083 14.8367C118.1 14.6197 118.872 12.3227 118.96 12.0615C118.968 12.0391 118.984 12.0205 119.005 12.01C119.026 11.9995 119.051 11.9978 119.073 12.0054C119.096 12.013 119.114 12.0292 119.125 12.0505C119.135 12.0717 119.137 12.0963 119.129 12.1187C118.786 13.1361 118.272 14.7029 118.261 14.8504C118.29 14.9151 118.647 15.0037 119.008 15.0317C119.031 15.0338 119.052 15.0445 119.067 15.0617C119.082 15.079 119.09 15.1013 119.089 15.1242C119.089 15.1472 119.079 15.1689 119.063 15.1849C119.046 15.2009 119.024 15.2101 119.002 15.2104V15.2101Z" fill="#0C0C0C"/>
</g>
<path d="M117.99 10.2841C117.708 10.1673 117.401 10.1272 117.099 10.1678C116.945 10.1872 116.795 10.2298 116.654 10.2943C116.51 10.3593 116.374 10.4422 116.251 10.541L116.241 10.5484C116.209 10.5732 116.169 10.5844 116.129 10.5798C116.089 10.5752 116.052 10.555 116.027 10.5236C116.001 10.4922 115.989 10.4521 115.993 10.4119C115.997 10.3717 116.016 10.3345 116.047 10.3084C116.184 10.1808 116.336 10.071 116.5 9.98166C116.667 9.8903 116.846 9.82449 117.033 9.78643C117.219 9.74638 117.41 9.73213 117.6 9.74408C117.796 9.75436 117.989 9.79264 118.174 9.85776C118.232 9.87859 118.279 9.92138 118.305 9.97681C118.331 10.0322 118.335 10.0958 118.314 10.1537C118.294 10.2116 118.252 10.2591 118.197 10.2858C118.142 10.3126 118.078 10.3164 118.021 10.2965C118.015 10.2945 118.009 10.2924 118.004 10.29L117.99 10.2841Z" fill="#0C0C0C"/>
<path d="M120.576 9.89469C120.943 9.76791 121.338 9.74332 121.718 9.82354C121.904 9.86157 122.083 9.92738 122.25 10.0188C122.414 10.1081 122.567 10.2179 122.704 10.3457C122.734 10.3719 122.753 10.4089 122.756 10.4489C122.76 10.4889 122.748 10.5286 122.723 10.5598C122.698 10.591 122.661 10.6112 122.622 10.616C122.582 10.6209 122.542 10.6101 122.51 10.5859L122.5 10.5781C122.376 10.4792 122.241 10.3963 122.097 10.3314C121.956 10.2668 121.806 10.2241 121.652 10.2047C121.35 10.1641 121.042 10.2042 120.761 10.321L120.748 10.3267C120.691 10.352 120.627 10.3539 120.57 10.3318C120.512 10.3097 120.465 10.2656 120.44 10.2091C120.415 10.1526 120.413 10.0883 120.435 10.0305C120.457 9.97264 120.501 9.92593 120.558 9.90063C120.564 9.89896 120.57 9.89654 120.576 9.89469Z" fill="#0C0C0C"/>
<path d="M120.952 4.51205C121.278 3.34402 120.901 2.21712 120.109 1.99505C119.318 1.77298 118.412 2.53983 118.087 3.70785C117.761 4.87588 118.138 6.00278 118.929 6.22485C119.72 6.44693 120.626 5.68008 120.952 4.51205Z" fill="#0C0C0C"/>
<path d="M45.2549 9.17407H2.27316C1.01773 9.17407 0 10.1948 0 11.4538V32.4508C0 33.7099 1.01773 34.7306 2.27316 34.7306H45.2549C46.5103 34.7306 47.5281 33.7099 47.5281 32.4508V11.4538C47.5281 10.1948 46.5103 9.17407 45.2549 9.17407Z" fill="#F4F4F4"/>
<path d="M28.9363 23.6858H25.9024C25.7178 23.6858 25.5681 23.8359 25.5681 24.0211V30.7649C25.5681 30.95 25.7178 31.1001 25.9024 31.1001H28.9363C29.1209 31.1001 29.2706 30.95 29.2706 30.7649V24.0211C29.2706 23.8359 29.1209 23.6858 28.9363 23.6858Z" fill="white"/>
<path d="M36.2471 16.6084H33.2132C33.0286 16.6084 32.8789 16.7585 32.8789 16.9437V30.7649C32.8789 30.95 33.0286 31.1001 33.2132 31.1001H36.2471C36.4317 31.1001 36.5814 30.95 36.5814 30.7649V16.9437C36.5814 16.7585 36.4317 16.6084 36.2471 16.6084Z" fill="white"/>
<path d="M43.5579 22.0239H40.524C40.3394 22.0239 40.1897 22.174 40.1897 22.3592V30.7649C40.1897 30.9501 40.3394 31.1002 40.524 31.1002H43.5579C43.7425 31.1002 43.8922 30.9501 43.8922 30.7649V22.3592C43.8922 22.174 43.7425 22.0239 43.5579 22.0239Z" fill="white"/>
<path d="M7.00415 23.6858H3.9703C3.78566 23.6858 3.63599 23.8359 3.63599 24.0211V30.7649C3.63599 30.95 3.78566 31.1001 3.9703 31.1001H7.00415C7.18879 31.1001 7.33847 30.95 7.33847 30.7649V24.0211C7.33847 23.8359 7.18879 23.6858 7.00415 23.6858Z" fill="white"/>
<path d="M14.3149 16.6084H11.2811C11.0965 16.6084 10.9468 16.7585 10.9468 16.9437V30.7649C10.9468 30.95 11.0965 31.1001 11.2811 31.1001H14.3149C14.4996 31.1001 14.6493 30.95 14.6493 30.7649V16.9437C14.6493 16.7585 14.4996 16.6084 14.3149 16.6084Z" fill="white"/>
<path d="M21.6255 22.0239H18.5916C18.407 22.0239 18.2573 22.174 18.2573 22.3592V30.7649C18.2573 30.9501 18.407 31.1002 18.5916 31.1002H21.6255C21.8101 31.1002 21.9598 30.9501 21.9598 30.7649V22.3592C21.9598 22.174 21.8101 22.0239 21.6255 22.0239Z" fill="white"/>
<path d="M102.25 0.185791H24.3388C22.6755 0.185791 21.3271 1.53805 21.3271 3.20614V95.2045C21.3271 96.8726 22.6755 98.2248 24.3388 98.2248H102.25C103.913 98.2248 105.262 96.8726 105.262 95.2045V3.20614C105.262 1.53805 103.913 0.185791 102.25 0.185791Z" fill="white"/>
<path d="M102.25 98.4105H24.3387C23.4911 98.4095 22.6786 98.0714 22.0793 97.4704C21.4799 96.8693 21.1428 96.0544 21.1418 95.2044V3.20611C21.1428 2.3561 21.4799 1.54118 22.0793 0.940132C22.6786 0.339084 23.4911 0.00098324 24.3387 0L102.25 0C103.098 0.00098324 103.91 0.339084 104.509 0.940132C105.109 1.54118 105.446 2.3561 105.447 3.20611V95.2044C105.446 96.0544 105.109 96.8693 104.509 97.4704C103.91 98.0714 103.098 98.4095 102.25 98.4105ZM24.3387 0.371507C23.5893 0.372392 22.871 0.67132 22.3411 1.20272C21.8112 1.73412 21.5132 2.45459 21.5123 3.20611V95.2044C21.5132 95.9559 21.8112 96.6764 22.3411 97.2078C22.871 97.7392 23.5893 98.0381 24.3387 98.039H102.25C102.999 98.0381 103.718 97.7392 104.248 97.2078C104.778 96.6764 105.076 95.9559 105.076 95.2044V3.20611C105.076 2.45459 104.778 1.73412 104.248 1.20272C103.718 0.67132 102.999 0.372392 102.25 0.371507H24.3387Z" fill="#292A2E"/>
<path d="M72.1156 15.0185C73.1127 15.0185 73.9209 14.2079 73.9209 13.208C73.9209 12.2081 73.1127 11.3975 72.1156 11.3975C71.1186 11.3975 70.3103 12.2081 70.3103 13.208C70.3103 14.2079 71.1186 15.0185 72.1156 15.0185Z" fill="#A073F0"/>
<path d="M72.1156 15.0185C73.1127 15.0185 73.9209 14.2079 73.9209 13.208C73.9209 12.2081 73.1127 11.3975 72.1156 11.3975C71.1186 11.3975 70.3103 12.2081 70.3103 13.208C70.3103 14.2079 71.1186 15.0185 72.1156 15.0185Z" fill="#A073F0"/>
<path d="M72.1156 24.2475C73.1127 24.2475 73.9209 23.4369 73.9209 22.437C73.9209 21.4371 73.1127 20.6265 72.1156 20.6265C71.1186 20.6265 70.3103 21.4371 70.3103 22.437C70.3103 23.4369 71.1186 24.2475 72.1156 24.2475Z" fill="#292A2E"/>
<path opacity="0.5" d="M72.1156 33.4765C73.1127 33.4765 73.9209 32.6659 73.9209 31.666C73.9209 30.6661 73.1127 29.8555 72.1156 29.8555C71.1186 29.8555 70.3103 30.6661 70.3103 31.666C70.3103 32.6659 71.1186 33.4765 72.1156 33.4765Z" fill="#A073F0"/>
<path opacity="0.2" d="M72.1156 42.7056C73.1127 42.7056 73.9209 41.8949 73.9209 40.895C73.9209 39.8951 73.1127 39.0845 72.1156 39.0845C71.1186 39.0845 70.3103 39.8951 70.3103 40.895C70.3103 41.8949 71.1186 42.7056 72.1156 42.7056Z" fill="#A073F0"/>
<path d="M36.2807 27.0516C36.2813 29.2584 36.9641 31.4108 38.2351 33.2123C39.5061 35.0138 41.3028 36.3758 43.3777 37.1107L40.4594 44.2466C36.446 42.7297 33.0905 39.8486 30.9775 36.1055C28.8645 32.3623 28.1279 27.9943 28.8962 23.7625C29.6645 19.5307 31.8888 15.7033 35.1817 12.9472C38.4746 10.1912 42.6273 8.68112 46.9162 8.68018V16.3854C44.0955 16.3854 41.3904 17.5092 39.3958 19.5094C37.4013 21.5097 36.2808 24.2227 36.2807 27.0516Z" fill="#292A2E"/>
<path d="M65.2347 27.0516H57.5518C57.5517 24.2227 56.4312 21.5097 54.4366 19.5094C52.4421 17.5092 49.7369 16.3854 46.9163 16.3854V8.68018C51.7745 8.68047 56.4337 10.6161 59.869 14.0613C63.3043 17.5066 65.2344 22.1792 65.2347 27.0516Z" fill="#A073F0"/>
<path opacity="0.5" d="M65.2348 27.0515C65.2344 31.2142 63.8249 35.2535 61.2371 38.5081C58.6494 41.7627 55.0366 44.04 50.9902 44.9671L49.6885 37.3512C51.9455 36.7395 53.9387 35.3994 55.3602 33.5378C56.7816 31.6762 57.5521 29.397 57.5526 27.0523L65.2348 27.0515Z" fill="#A073F0"/>
<path opacity="0.2" d="M50.9901 44.967C47.4854 45.7632 43.8249 45.513 40.4602 44.2472L43.3783 37.1106C45.4097 37.8255 47.6089 37.9091 49.6884 37.3504L50.9901 44.967Z" fill="#A073F0"/>
<path d="M97.2292 13.3393H76.3182C76.2835 13.3393 76.2502 13.3255 76.2256 13.3009C76.201 13.2762 76.1873 13.2428 76.1873 13.208C76.1873 13.1732 76.201 13.1398 76.2256 13.1151C76.2502 13.0905 76.2835 13.0767 76.3182 13.0767H97.2292C97.2639 13.0767 97.2972 13.0905 97.3218 13.1151C97.3463 13.1398 97.3601 13.1732 97.3601 13.208C97.3601 13.2428 97.3463 13.2762 97.3218 13.3009C97.2972 13.3255 97.2639 13.3393 97.2292 13.3393Z" fill="#A073F0"/>
<path d="M97.2292 22.5691H76.3182C76.2835 22.5691 76.2502 22.5552 76.2256 22.5306C76.201 22.506 76.1873 22.4726 76.1873 22.4377C76.1873 22.4029 76.201 22.3695 76.2256 22.3449C76.2502 22.3202 76.2835 22.3064 76.3182 22.3064H97.2292C97.2639 22.3064 97.2972 22.3202 97.3218 22.3449C97.3463 22.3695 97.3601 22.4029 97.3601 22.4377C97.3601 22.4726 97.3463 22.506 97.3218 22.5306C97.2972 22.5552 97.2639 22.5691 97.2292 22.5691Z" fill="#292A2E"/>
<g opacity="0.5">
<path d="M97.2291 31.7972H76.3182C76.2843 31.796 76.2523 31.7816 76.2288 31.7571C76.2053 31.7326 76.1921 31.7 76.1921 31.666C76.1921 31.632 76.2053 31.5994 76.2288 31.5749C76.2523 31.5504 76.2843 31.536 76.3182 31.5348H97.2291C97.2467 31.5341 97.2643 31.537 97.2807 31.5433C97.2972 31.5496 97.3122 31.5592 97.3249 31.5714C97.3376 31.5837 97.3477 31.5983 97.3545 31.6146C97.3614 31.6309 97.365 31.6483 97.365 31.666C97.365 31.6837 97.3614 31.7011 97.3545 31.7174C97.3477 31.7336 97.3376 31.7483 97.3249 31.7606C97.3122 31.7728 97.2972 31.7824 97.2807 31.7887C97.2643 31.795 97.2467 31.7979 97.2291 31.7972Z" fill="#A073F0"/>
</g>
<g opacity="0.2">
<path d="M97.2291 41.0262H76.3182C76.2843 41.025 76.2523 41.0106 76.2288 40.9861C76.2053 40.9616 76.1921 40.929 76.1921 40.895C76.1921 40.861 76.2053 40.8284 76.2288 40.8039C76.2523 40.7794 76.2843 40.765 76.3182 40.7638H97.2291C97.2467 40.7631 97.2643 40.766 97.2807 40.7723C97.2972 40.7786 97.3122 40.7882 97.3249 40.8004C97.3376 40.8127 97.3477 40.8274 97.3545 40.8436C97.3614 40.8599 97.365 40.8773 97.365 40.895C97.365 40.9127 97.3614 40.9301 97.3545 40.9464C97.3477 40.9626 97.3376 40.9773 97.3249 40.9896C97.3122 41.0018 97.2972 41.0114 97.2807 41.0177C97.2643 41.024 97.2467 41.0269 97.2291 41.0262Z" fill="#A073F0"/>
</g>
<g opacity="0.1">
<path d="M97.3191 91.1847H29.2693C28.6777 91.184 28.1105 90.948 27.6921 90.5284C27.2738 90.1088 27.0385 89.5399 27.0378 88.9466V54.37C27.0385 53.7767 27.2739 53.2079 27.6922 52.7883C28.1105 52.3688 28.6777 52.1328 29.2693 52.1321H97.3191C97.9107 52.1327 98.4779 52.3687 98.8962 52.7883C99.3146 53.2078 99.5499 53.7767 99.5505 54.37V88.9466C99.5499 89.5399 99.3146 90.1088 98.8963 90.5284C98.4779 90.948 97.9107 91.184 97.3191 91.1847Z" fill="#A073F0"/>
</g>
<path opacity="0.5" d="M36.3143 59.9756H34.9894C34.79 59.9756 34.6284 60.1377 34.6284 60.3376V85.7192C34.6284 85.9191 34.79 86.0812 34.9894 86.0812H36.3143C36.5136 86.0812 36.6752 85.9191 36.6752 85.7192V60.3376C36.6752 60.1377 36.5136 59.9756 36.3143 59.9756Z" fill="#A073F0"/>
<path d="M34.2671 68.175H32.9423C32.7429 68.175 32.5813 68.3371 32.5813 68.5371V85.7195C32.5813 85.9194 32.7429 86.0815 32.9423 86.0815H34.2671C34.4665 86.0815 34.6281 85.9194 34.6281 85.7195V68.5371C34.6281 68.3371 34.4665 68.175 34.2671 68.175Z" fill="#A073F0"/>
<path opacity="0.5" d="M52.6946 82.7781H51.3698C51.1704 82.7781 51.0088 82.9402 51.0088 83.1401V85.7193C51.0088 85.9192 51.1704 86.0813 51.3698 86.0813H52.6946C52.894 86.0813 53.0556 85.9192 53.0556 85.7193V83.1401C53.0556 82.9402 52.894 82.7781 52.6946 82.7781Z" fill="#A073F0"/>
<path d="M50.6478 66.7004H49.3229C49.1235 66.7004 48.9619 66.8625 48.9619 67.0625V85.719C48.9619 85.9189 49.1235 86.081 49.3229 86.081H50.6478C50.8471 86.081 51.0087 85.9189 51.0087 85.719V67.0625C51.0087 66.8625 50.8471 66.7004 50.6478 66.7004Z" fill="#A073F0"/>
<path opacity="0.5" d="M44.5044 70.4551H43.1796C42.9802 70.4551 42.8186 70.6172 42.8186 70.8171V85.719C42.8186 85.9189 42.9802 86.081 43.1796 86.081H44.5044C44.7038 86.081 44.8654 85.9189 44.8654 85.719V70.8171C44.8654 70.6172 44.7038 70.4551 44.5044 70.4551Z" fill="#A073F0"/>
<path d="M42.4573 75.8542H41.1325C40.9331 75.8542 40.7715 76.0163 40.7715 76.2163V85.7191C40.7715 85.919 40.9331 86.0811 41.1325 86.0811H42.4573C42.6567 86.0811 42.8183 85.919 42.8183 85.7191V76.2163C42.8183 76.0163 42.6567 75.8542 42.4573 75.8542Z" fill="#A073F0"/>
<path opacity="0.5" d="M77.2654 65.0244H75.9406C75.7412 65.0244 75.5796 65.1865 75.5796 65.3864V85.7192C75.5796 85.9192 75.7412 86.0812 75.9406 86.0812H77.2654C77.4648 86.0812 77.6264 85.9192 77.6264 85.7192V65.3864C77.6264 65.1865 77.4648 65.0244 77.2654 65.0244Z" fill="#A073F0"/>
<path d="M75.2186 72.7769H73.8937C73.6943 72.7769 73.5327 72.9389 73.5327 73.1389V85.7192C73.5327 85.9192 73.6943 86.0813 73.8937 86.0813H75.2186C75.4179 86.0813 75.5795 85.9192 75.5795 85.7192V73.1389C75.5795 72.9389 75.4179 72.7769 75.2186 72.7769Z" fill="#A073F0"/>
<path opacity="0.5" d="M60.8851 68.3091H59.5602C59.3608 68.3091 59.1992 68.4712 59.1992 68.6711V85.7192C59.1992 85.9191 59.3608 86.0812 59.5602 86.0812H60.8851C61.0844 86.0812 61.246 85.9191 61.246 85.7192V68.6711C61.246 68.4712 61.0844 68.3091 60.8851 68.3091Z" fill="#A073F0"/>
<path d="M58.8382 70.321H57.5133C57.314 70.321 57.1523 70.4831 57.1523 70.6831V85.7191C57.1523 85.919 57.314 86.0811 57.5133 86.0811H58.8382C59.0376 86.0811 59.1992 85.919 59.1992 85.7191V70.6831C59.1992 70.4831 59.0376 70.321 58.8382 70.321Z" fill="#A073F0"/>
<path opacity="0.5" d="M69.0752 59.9756H67.7504C67.551 59.9756 67.3894 60.1377 67.3894 60.3376V85.7192C67.3894 85.9191 67.551 86.0812 67.7504 86.0812H69.0752C69.2746 86.0812 69.4362 85.9191 69.4362 85.7192V60.3376C69.4362 60.1377 69.2746 59.9756 69.0752 59.9756Z" fill="#A073F0"/>
<path d="M67.0284 61.2332H65.7035C65.5041 61.2332 65.3425 61.3952 65.3425 61.5952V85.7192C65.3425 85.9191 65.5041 86.0812 65.7035 86.0812H67.0284C67.2277 86.0812 67.3894 85.9191 67.3894 85.7192V61.5952C67.3894 61.3952 67.2277 61.2332 67.0284 61.2332Z" fill="#A073F0"/>
<path opacity="0.5" d="M85.4559 59.9756H84.131C83.9316 59.9756 83.77 60.1377 83.77 60.3376V85.7192C83.77 85.9191 83.9316 86.0812 84.131 86.0812H85.4559C85.6552 86.0812 85.8168 85.9191 85.8168 85.7192V60.3376C85.8168 60.1377 85.6552 59.9756 85.4559 59.9756Z" fill="#A073F0"/>
<path d="M83.409 68.175H82.0841C81.8848 68.175 81.7231 68.3371 81.7231 68.5371V85.7195C81.7231 85.9194 81.8848 86.0815 82.0841 86.0815H83.409C83.6084 86.0815 83.77 85.9194 83.77 85.7195V68.5371C83.77 68.3371 83.6084 68.175 83.409 68.175Z" fill="#A073F0"/>
<path opacity="0.5" d="M93.646 70.4551H92.3212C92.1218 70.4551 91.9602 70.6172 91.9602 70.8171V85.719C91.9602 85.9189 92.1218 86.081 92.3212 86.081H93.646C93.8454 86.081 94.007 85.9189 94.007 85.719V70.8171C94.007 70.6172 93.8454 70.4551 93.646 70.4551Z" fill="#A073F0"/>
<path d="M91.5992 75.8542H90.2743C90.0749 75.8542 89.9133 76.0163 89.9133 76.2163V85.7191C89.9133 85.919 90.0749 86.0811 90.2743 86.0811H91.5992C91.7985 86.0811 91.9602 85.919 91.9602 85.7191V76.2163C91.9602 76.0163 91.7985 75.8542 91.5992 75.8542Z" fill="#A073F0"/>
<path d="M102.135 55.0112C101.311 55.01 100.502 54.7926 99.7878 54.3807C99.0735 53.9688 98.479 53.3767 98.0633 52.6632C97.6477 51.9497 97.4253 51.1395 97.4184 50.3132C97.4114 49.4868 97.6201 48.673 98.0237 47.9526L109.281 27.8707C109.584 27.3256 109.991 26.8457 110.478 26.4587C110.966 26.0716 111.525 25.785 112.124 25.6154C112.723 25.4457 113.349 25.3962 113.966 25.4699C114.584 25.5436 115.181 25.7389 115.723 26.0446C116.266 26.3503 116.742 26.7605 117.126 27.2515C117.51 27.7424 117.793 28.3046 117.959 28.9057C118.126 29.5068 118.172 30.1349 118.096 30.754C118.02 31.3731 117.822 31.9711 117.515 32.5135L106.257 52.5953C105.846 53.329 105.248 53.9396 104.523 54.3642C103.799 54.7889 102.975 55.0122 102.135 55.0112Z" fill="#A073F0"/>
<path d="M109.05 47.6121L108.882 44.1877" stroke="#0C0C0C" stroke-width="0.75" stroke-linecap="round" stroke-linejoin="round"/>
<path d="M122.7 38.537L119.787 35.1175C119.725 35.044 119.648 34.9841 119.561 34.9414C119.475 34.8987 119.38 34.8741 119.284 34.8691C119.188 34.8641 119.092 34.8789 119.001 34.9125C118.911 34.946 118.828 34.9977 118.758 35.0644C118.628 35.1981 118.553 35.3766 118.548 35.5638C118.544 35.7509 118.61 35.9328 118.734 36.0727L119.357 36.8034L122.471 39.1755L122.7 38.537Z" fill="#FFC3BD"/>
<path d="M118.131 39.4384L108.933 40.0131C108.564 40.0362 108.2 39.9212 107.91 39.6905C107.62 39.4597 107.426 39.1294 107.365 38.7635L105.093 25.151C105.058 24.9437 105.067 24.7316 105.12 24.5282C105.172 24.3247 105.267 24.1346 105.397 23.9701C105.527 23.8056 105.691 23.6704 105.876 23.5732C106.062 23.4761 106.266 23.4191 106.475 23.406L115.673 22.8313C116.042 22.8082 116.407 22.9232 116.696 23.154C116.986 23.3848 117.18 23.7151 117.241 24.081L119.513 37.6934C119.547 37.9006 119.538 38.1127 119.486 38.3161C119.433 38.5195 119.339 38.7095 119.209 38.874C119.079 39.0385 118.915 39.1737 118.73 39.271C118.544 39.3682 118.34 39.4252 118.131 39.4384Z" fill="#292A2E"/>
<path d="M119.357 36.8033L116.338 35.4016C116.004 35.24 115.493 35.2553 115.336 35.6418C115.267 35.7866 115.248 35.9508 115.283 36.1076C115.319 36.2644 115.406 36.4045 115.531 36.5052C115.528 36.5081 115.526 36.5113 115.524 36.5147C115.524 36.5174 115.523 36.5201 115.523 36.5228L115.009 36.2734C114.914 36.2275 114.811 36.2032 114.706 36.2025C114.601 36.2015 114.497 36.224 114.401 36.2683C114.306 36.3126 114.222 36.3776 114.154 36.4586C114.087 36.5396 114.038 36.6346 114.012 36.7367C113.974 36.9002 113.993 37.072 114.066 37.2231C114.139 37.3743 114.262 37.4953 114.414 37.5659L114.633 37.6721C114.633 37.6801 114.634 37.688 114.637 37.6955C114.474 37.6584 114.304 37.68 114.155 37.7564C114.007 37.8328 113.89 37.9591 113.826 38.1133C113.759 38.2883 113.762 38.4821 113.833 38.6553C113.904 38.8285 114.037 38.9684 114.207 39.0465L114.744 39.3066C114.734 39.3083 114.724 39.3125 114.716 39.3187C114.707 39.3249 114.701 39.333 114.696 39.3424C114.691 39.3545 114.689 39.3678 114.692 39.3807C114.541 39.3875 114.396 39.4427 114.278 39.5382C114.161 39.6336 114.077 39.7644 114.039 39.9112C114 40.0747 114.019 40.2466 114.092 40.3978C114.166 40.5489 114.289 40.67 114.441 40.7406L119.02 42.9648C119.661 43.2759 120.38 43.388 121.084 43.2868C121.789 43.1855 122.447 42.8755 122.975 42.3966L124.675 40.8548L119.357 36.8033Z" fill="#FFC3BD"/>
<g opacity="0.2">
<path d="M118.512 37.9081C118.505 37.9234 118.491 37.9352 118.475 37.9409C118.459 37.9466 118.441 37.9457 118.426 37.9385L115.555 36.6011C115.547 36.5974 115.54 36.5923 115.534 36.5859C115.529 36.5795 115.524 36.5721 115.521 36.564C115.518 36.5558 115.517 36.5472 115.517 36.5386C115.518 36.53 115.52 36.5215 115.524 36.5137C115.527 36.5059 115.532 36.4989 115.539 36.493C115.545 36.4872 115.552 36.4827 115.561 36.4798C115.569 36.4768 115.577 36.4755 115.586 36.4759C115.594 36.4763 115.603 36.4784 115.611 36.482L118.482 37.8185C118.497 37.8259 118.509 37.8392 118.515 37.8556C118.521 37.8719 118.521 37.89 118.513 37.9058L118.512 37.9081Z" fill="#0C0C0C"/>
</g>
<g opacity="0.2">
<path d="M117.959 39.194C117.952 39.2094 117.938 39.2212 117.922 39.2269C117.906 39.2326 117.889 39.2318 117.873 39.2246L114.67 37.733C114.654 37.7256 114.642 37.7123 114.636 37.696C114.63 37.6796 114.631 37.6615 114.638 37.6457C114.646 37.6303 114.659 37.6185 114.676 37.6126C114.692 37.6066 114.71 37.6071 114.725 37.6138L117.928 39.1054C117.944 39.1127 117.956 39.1261 117.962 39.1424C117.968 39.1588 117.967 39.1768 117.96 39.1927L117.959 39.194Z" fill="#0C0C0C"/>
</g>
<g opacity="0.2">
<path d="M117.369 40.5895C117.361 40.6049 117.348 40.6167 117.332 40.6224C117.316 40.6281 117.298 40.6273 117.282 40.6201L114.727 39.4302C114.72 39.4265 114.713 39.4214 114.707 39.415C114.701 39.4086 114.697 39.4012 114.694 39.3931C114.691 39.3849 114.689 39.3763 114.69 39.3677C114.69 39.3591 114.692 39.3506 114.696 39.3428C114.7 39.335 114.705 39.328 114.711 39.3221C114.717 39.3163 114.725 39.3118 114.733 39.3089C114.741 39.3059 114.75 39.3046 114.758 39.305C114.767 39.3054 114.775 39.3075 114.783 39.3111L117.338 40.5009C117.354 40.5083 117.366 40.5216 117.372 40.538C117.378 40.5543 117.377 40.5724 117.37 40.5882L117.369 40.5895Z" fill="#0C0C0C"/>
</g>
<path d="M119.171 44.2836L139.037 54.0565C139.878 54.4449 140.811 54.5869 141.73 54.4661C142.648 54.3452 143.513 53.9664 144.226 53.3735C144.938 52.7805 145.469 51.9975 145.757 51.1149C146.045 50.2323 146.078 49.286 145.853 48.3852L140.548 29.2584C140.231 27.9916 139.426 26.903 138.309 26.232C137.191 25.5609 135.854 25.3625 134.591 25.6802C131.961 26.342 130.549 29.0167 131.209 31.6546L135.371 41.9964L122.641 36.6437L119.171 44.2836Z" fill="#A073F0"/>
<path d="M137.73 53.5201C137.724 53.519 137.718 53.517 137.712 53.5143L119.143 44.3427C119.127 44.3352 119.115 44.3221 119.11 44.306C119.104 44.2899 119.104 44.2721 119.112 44.2565L122.581 36.6167C122.588 36.601 122.601 36.5887 122.617 36.5825C122.633 36.5762 122.65 36.5765 122.666 36.5832L135.085 41.697L132.627 34.273C132.625 34.2647 132.624 34.2561 132.625 34.2475C132.626 34.2389 132.629 34.2306 132.633 34.2231C132.637 34.2156 132.643 34.209 132.649 34.2036C132.656 34.1983 132.664 34.1943 132.672 34.1919C132.68 34.1896 132.689 34.1889 132.698 34.1899C132.706 34.1909 132.714 34.1936 132.722 34.1978C132.729 34.202 132.736 34.2076 132.741 34.2144C132.747 34.2211 132.751 34.2289 132.753 34.2372L135.248 41.7927C135.251 41.8046 135.251 41.8173 135.248 41.8291C135.244 41.841 135.237 41.8517 135.228 41.8599C135.219 41.8681 135.208 41.8736 135.195 41.8756C135.183 41.8776 135.171 41.8761 135.159 41.8713L122.674 36.7291L119.257 44.2521L137.769 53.3956C137.784 53.4026 137.795 53.4144 137.801 53.4289C137.807 53.4434 137.808 53.4597 137.803 53.4747C137.798 53.4898 137.788 53.5025 137.775 53.5108C137.761 53.519 137.745 53.5221 137.73 53.5195V53.5201Z" fill="#0C0C0C"/>
<path d="M137.412 42.8786C137.407 42.8776 137.402 42.8761 137.397 42.8739L135.159 41.8709C135.151 41.8674 135.144 41.8623 135.138 41.8561C135.132 41.8498 135.127 41.8425 135.124 41.8344C135.121 41.8264 135.12 41.8178 135.12 41.8092C135.12 41.8006 135.122 41.7921 135.126 41.7842C135.129 41.7764 135.134 41.7693 135.14 41.7633C135.147 41.7574 135.154 41.7528 135.162 41.7497C135.17 41.7466 135.178 41.7452 135.187 41.7454C135.196 41.7456 135.204 41.7476 135.212 41.7511L137.45 42.7541C137.465 42.7607 137.476 42.7723 137.483 42.7867C137.489 42.8011 137.49 42.8174 137.486 42.8325C137.481 42.8477 137.471 42.8607 137.458 42.8692C137.445 42.8776 137.429 42.881 137.413 42.8786H137.412Z" fill="#0C0C0C"/>
<path d="M112.109 29.4776C112.013 29.3577 111.882 29.272 111.734 29.2333C111.586 29.1946 111.429 29.205 111.288 29.2629C111.287 29.254 111.284 29.2456 111.279 29.2383C111.274 29.2309 111.267 29.2249 111.259 29.2208C111.251 29.2166 111.243 29.2145 111.234 29.2145C111.225 29.2145 111.216 29.2167 111.208 29.2209L111.595 28.7528C111.713 28.6145 111.777 28.4369 111.772 28.2544C111.768 28.0719 111.696 27.8976 111.571 27.7651C111.449 27.6444 111.288 27.5719 111.117 27.561C110.947 27.55 110.778 27.6013 110.642 27.7055C110.642 27.6985 110.635 27.6933 110.632 27.6869L110.79 27.4954C110.899 27.3687 110.96 27.2086 110.965 27.0417C110.97 26.8748 110.918 26.7113 110.817 26.5785C110.751 26.4956 110.667 26.4285 110.572 26.382C110.477 26.3355 110.373 26.3109 110.268 26.3098C110.162 26.3088 110.057 26.3314 109.962 26.376C109.866 26.4207 109.781 26.4862 109.714 26.5678L109.349 27.0099C109.347 27.0076 109.347 27.0041 109.345 27.0021C109.342 27 109.337 27.0004 109.334 26.9983C109.407 26.8545 109.428 26.6902 109.396 26.5324C109.363 26.3745 109.278 26.2325 109.154 26.1296C108.852 25.8431 108.38 26.0426 108.144 26.3287L105.914 28.9822L105.979 28.8622L106.243 27.9349C106.296 27.7604 106.283 27.5723 106.206 27.4069C106.129 27.2415 105.994 27.1107 105.826 27.0398C105.734 27.0043 105.636 26.9884 105.537 26.9931C105.439 26.9977 105.342 27.0229 105.254 27.067C105.166 27.1111 105.088 27.1731 105.025 27.2491C104.962 27.3251 104.916 27.4134 104.888 27.5084L103.656 31.8328L103.357 32.8828C103.214 33.3865 103.271 33.9264 103.519 34.3879C103.766 34.8494 104.182 35.1961 104.68 35.3543L105.006 35.4577C105.685 35.6733 106.412 35.6808 107.095 35.4792C107.778 35.2775 108.385 34.8759 108.839 34.326L112.082 30.3943C112.191 30.2677 112.252 30.1075 112.257 29.9407C112.262 29.7738 112.21 29.6103 112.109 29.4776Z" fill="#FFC3BD"/>
<g opacity="0.2">
<path d="M107.205 29.5148C107.218 29.5257 107.235 29.5309 107.252 29.5293C107.269 29.5278 107.285 29.5197 107.296 29.5067L109.352 27.0947C109.358 27.0882 109.362 27.0805 109.366 27.0722C109.369 27.0638 109.37 27.0549 109.37 27.046C109.369 27.0371 109.367 27.0284 109.363 27.0204C109.359 27.0124 109.353 27.0053 109.347 26.9995C109.34 26.9937 109.332 26.9893 109.324 26.9866C109.315 26.984 109.306 26.9831 109.297 26.984C109.288 26.9849 109.28 26.9876 109.272 26.9919C109.264 26.9963 109.258 27.0022 109.252 27.0092L107.196 29.4212C107.191 29.4278 107.186 29.4354 107.184 29.4436C107.181 29.4519 107.18 29.4605 107.181 29.4692C107.181 29.4778 107.184 29.4862 107.188 29.4939C107.191 29.5016 107.197 29.5085 107.203 29.5141L107.205 29.5148Z" fill="#0C0C0C"/>
</g>
<g opacity="0.2">
<path d="M108.241 30.4535C108.254 30.4643 108.271 30.4695 108.288 30.468C108.305 30.4664 108.321 30.4583 108.332 30.4453L110.627 27.7536C110.632 27.747 110.636 27.7394 110.639 27.7311C110.642 27.7229 110.643 27.7142 110.642 27.7056C110.642 27.697 110.639 27.6886 110.635 27.6809C110.631 27.6731 110.626 27.6663 110.619 27.6607C110.606 27.6499 110.589 27.6446 110.572 27.646C110.554 27.6473 110.538 27.6552 110.527 27.6679L108.232 30.3597C108.226 30.3662 108.222 30.3739 108.22 30.3821C108.217 30.3903 108.216 30.399 108.217 30.4076C108.217 30.4162 108.22 30.4247 108.223 30.4324C108.227 30.4401 108.233 30.4469 108.239 30.4525L108.241 30.4535Z" fill="#0C0C0C"/>
</g>
<g opacity="0.2">
<path d="M109.356 31.4768C109.369 31.4876 109.386 31.4928 109.403 31.4913C109.42 31.4897 109.436 31.4816 109.447 31.4686L111.278 29.3215C111.284 29.315 111.289 29.3074 111.292 29.299C111.295 29.2906 111.296 29.2817 111.296 29.2728C111.295 29.2639 111.293 29.2552 111.289 29.2472C111.285 29.2392 111.28 29.2321 111.273 29.2263C111.266 29.2205 111.258 29.2161 111.25 29.2134C111.241 29.2108 111.232 29.2099 111.223 29.2108C111.215 29.2117 111.206 29.2144 111.198 29.2188C111.191 29.2231 111.184 29.229 111.178 29.236L109.348 31.3833C109.342 31.3899 109.338 31.3975 109.335 31.4058C109.332 31.414 109.331 31.4227 109.332 31.4313C109.333 31.44 109.335 31.4484 109.339 31.4561C109.343 31.4638 109.348 31.4706 109.355 31.4762L109.356 31.4768Z" fill="#0C0C0C"/>
</g>
<path d="M110.642 34.1895L106.987 50.6737C106.779 51.9629 106.069 53.1166 105.013 53.8809C103.957 54.6453 102.642 54.9576 101.356 54.7493C100.071 54.5409 98.9206 53.829 98.1585 52.77C97.3963 51.711 97.0849 50.3918 97.2926 49.1026L102.311 31.4915" fill="#A073F0"/>
<path d="M107.271 47.6121L109.332 40.0193" stroke="#0C0C0C" stroke-width="0.75" stroke-linecap="round" stroke-linejoin="round"/>
<path d="M142.094 144H13.1593C13.1102 144 13.0631 143.98 13.0284 143.946C12.9936 143.911 12.9741 143.863 12.9741 143.814C12.9741 143.765 12.9936 143.718 13.0284 143.683C13.0631 143.648 13.1102 143.628 13.1593 143.628H142.094C142.143 143.628 142.19 143.648 142.225 143.683C142.26 143.718 142.279 143.765 142.279 143.814C142.279 143.863 142.26 143.911 142.225 143.946C142.19 143.98 142.143 144 142.094 144Z" fill="#292A2E"/>
</svg>
