<svg width="248" height="185" viewBox="0 0 248 185" fill="none" xmlns="http://www.w3.org/2000/svg">
<path d="M247.899 162.281H0.100952V162.405H247.899V162.281Z" fill="#EBEBEB"/>
<path d="M223.07 170.258H215.685V170.382H223.07V170.258Z" fill="#EBEBEB"/>
<path d="M164.252 171.603H159.944V171.727H164.252V171.603Z" fill="#EBEBEB"/>
<path d="M213.592 165.656H196.647V165.78H213.592V165.656Z" fill="#EBEBEB"/>
<path d="M54.433 168.213H33.027V168.337H54.433V168.213Z" fill="#EBEBEB"/>
<path d="M66.5659 168.213H58.8459V168.337H66.5659V168.213Z" fill="#EBEBEB"/>
<path d="M126.356 166.55H79.9309V166.674H126.356V166.55Z" fill="#EBEBEB"/>
<path d="M117.564 140.178H21.8639C21.1139 140.177 20.3948 139.879 19.8644 139.349C19.334 138.818 19.0357 138.099 19.0349 137.349V2.828C19.036 2.07812 19.3344 1.35927 19.8647 0.829121C20.3951 0.298968 21.114 0.000793618 21.8639 0H117.564C118.314 0.00105816 119.032 0.299348 119.562 0.829472C120.093 1.3596 120.391 2.07829 120.392 2.828V137.347C120.392 138.097 120.094 138.817 119.563 139.347C119.033 139.878 118.314 140.177 117.564 140.178ZM21.8649 0.124001C21.1495 0.126111 20.4639 0.411253 19.9581 0.917145C19.4522 1.42304 19.167 2.10857 19.1649 2.824V137.347C19.167 138.062 19.4522 138.748 19.9581 139.254C20.4639 139.76 21.1495 140.045 21.8649 140.047H117.565C118.28 140.045 118.966 139.76 119.472 139.254C119.978 138.748 120.263 138.062 120.265 137.347V2.828C120.263 2.11256 119.978 1.42703 119.472 0.921143C118.966 0.415251 118.28 0.130113 117.565 0.128002L21.8649 0.124001Z" fill="#EBEBEB"/>
<path d="M224.76 140.178H129.06C128.31 140.177 127.591 139.879 127.061 139.348C126.531 138.818 126.233 138.099 126.232 137.349V2.828C126.233 2.07821 126.531 1.35936 127.061 0.829182C127.591 0.299001 128.31 0.000794128 129.06 0H224.76C225.51 0.000793618 226.229 0.298968 226.759 0.829121C227.289 1.35927 227.588 2.07812 227.589 2.828V137.347C227.589 138.097 227.291 138.817 226.76 139.348C226.23 139.879 225.51 140.177 224.76 140.178ZM129.06 0.124001C128.345 0.126111 127.659 0.411253 127.153 0.917145C126.647 1.42304 126.362 2.10857 126.36 2.824V137.347C126.362 138.062 126.647 138.748 127.153 139.254C127.659 139.76 128.345 140.045 129.06 140.047H224.76C225.476 140.046 226.163 139.762 226.67 139.256C227.177 138.75 227.463 138.063 227.465 137.347V2.828C227.463 2.1117 227.177 1.42542 226.67 0.919384C226.163 0.41335 225.476 0.128793 224.76 0.128002L129.06 0.124001Z" fill="#EBEBEB"/>
<path d="M106.394 162.28H115.623L115.623 98.908H106.394V162.28Z" fill="#E6E6E6"/>
<path d="M109.643 162.28H106.394V150.24H113.049L109.643 162.28Z" fill="#F0F0F0"/>
<path d="M203.988 162.28H213.217V98.908H203.988V162.28Z" fill="#E6E6E6"/>
<path d="M106.394 158.993H206.823V98.9079L106.394 98.9079L106.394 158.993Z" fill="#F0F0F0"/>
<path d="M203.578 162.28H206.827V150.24H200.168L203.578 162.28Z" fill="#F0F0F0"/>
<path d="M173.713 103.883V153.587H203.484V103.883H173.713Z" fill="#E6E6E6"/>
<path d="M185.654 105.631H191.544C194.037 105.656 196.449 104.75 198.308 103.089H178.891C180.75 104.749 183.162 105.656 185.654 105.631Z" fill="#F0F0F0"/>
<path d="M141.723 103.883V153.587H171.494V103.883H141.723Z" fill="#E6E6E6"/>
<path d="M153.363 105.631H159.253C161.745 105.656 164.157 104.749 166.016 103.089H146.599C148.458 104.75 150.87 105.656 153.363 105.631Z" fill="#F0F0F0"/>
<path d="M109.733 103.883V153.587H139.504V103.883H109.733Z" fill="#E6E6E6"/>
<path d="M121.373 105.631H127.263C129.756 105.656 132.168 104.75 134.027 103.089H114.609C116.468 104.75 118.88 105.656 121.373 105.631Z" fill="#F0F0F0"/>
<path d="M34.7829 162.28H97.7529L97.7529 20.728H34.7829L34.7829 162.28Z" fill="#F0F0F0"/>
<path d="M34.783 162.28H96.424L96.424 20.728H34.783L34.783 162.28Z" fill="#F5F5F5"/>
<path d="M92.668 159.068L92.668 23.9399L38.539 23.9399L38.539 159.068H92.668Z" fill="#F0F0F0"/>
<path d="M87.349 49.071C87.349 47.133 86.9673 45.2141 86.2257 43.4237C85.4841 41.6333 84.3971 40.0065 83.0268 38.6362C81.6565 37.2659 80.0297 36.1789 78.2393 35.4373C76.4489 34.6957 74.5299 34.314 72.592 34.314H58.616C54.7022 34.314 50.9487 35.8687 48.1812 38.6362C45.4138 41.4037 43.859 45.1572 43.859 49.071H87.349Z" fill="#FAFAFA"/>
<path d="M87.349 150.669V118.387H43.859V150.669H87.349Z" fill="#F5F5F5"/>
<path d="M87.349 58.1731H68.166V114.222H87.349V58.1731Z" fill="#F5F5F5"/>
<path d="M63.042 58.1731H43.859V114.222H63.042V58.1731Z" fill="#F5F5F5"/>
<path d="M50.816 85.9451H42.959C42.6359 85.9443 42.3263 85.8156 42.0979 85.5872C41.8695 85.3587 41.7408 85.0491 41.74 84.7261C41.741 84.4031 41.8698 84.0937 42.0982 83.8653C42.3266 83.6369 42.636 83.5081 42.959 83.5071H50.816C51.139 83.5081 51.4484 83.6369 51.6768 83.8653C51.9052 84.0937 52.0339 84.4031 52.035 84.7261C52.0342 85.0491 51.9055 85.3587 51.6771 85.5872C51.4486 85.8156 51.139 85.9443 50.816 85.9451Z" fill="#E0E0E0"/>
<path d="M39.5139 159.068L39.5139 23.9399H38.5399L38.5399 159.068H39.5139Z" fill="#F0F0F0"/>
<path d="M137.583 83.3721L204.362 83.3721V20.7281L137.583 20.7281V83.3721Z" fill="#E6E6E6"/>
<path d="M135.9 83.3721L202.679 83.3721V20.7281L135.9 20.7281V83.3721Z" fill="#F5F5F5"/>
<path d="M132.001 86.998L204.362 86.998V83.372L132.001 83.372V86.998Z" fill="#E6E6E6"/>
<path d="M130.106 86.998L198.74 86.998V83.372L130.106 83.372V86.998Z" fill="#F5F5F5"/>
<path d="M199.657 80.1141V23.9871L138.921 23.9871V80.1141H199.657Z" fill="white"/>
<path d="M170.972 80.1141V23.9871H167.605V80.1141H170.972Z" fill="#F5F5F5"/>
<path d="M140.194 80.1141V23.9871H138.921V80.1141H140.194Z" fill="#E6E6E6"/>
<path d="M172.245 80.1141V23.9871H170.972V80.1141H172.245Z" fill="#E6E6E6"/>
<path d="M146.56 85.0329C145.332 72.3079 144.477 51.6589 145.141 44.7529C145.153 44.6342 145.189 44.5194 145.248 44.4159C145.308 44.3125 145.388 44.2228 145.485 44.1529C145.613 44.0589 145.766 44.0029 145.924 43.9913C146.083 43.9796 146.242 44.0128 146.382 44.0871C146.523 44.1613 146.64 44.2736 146.72 44.4111C146.8 44.5486 146.84 44.7059 146.835 44.8649C146.718 48.2869 146.583 56.8399 147.312 71.5949C147.675 78.9399 148.198 83.9699 147.839 85.0309L146.56 85.0329Z" fill="#E6E6E6"/>
<path d="M141.982 55.704C138.482 51.821 131.343 49.06 124.065 49.074C121.208 49.08 132.758 53.591 137.565 58.574C141.407 62.712 144.569 67.4321 146.934 72.559C146.006 64.954 145.479 59.585 141.982 55.704Z" fill="#E6E6E6"/>
<path d="M148.914 56.8859C151.814 52.8419 158.521 49.7319 165.774 49.3799C168.621 49.2419 157.788 54.317 153.745 59.519C150.52 63.8668 148.068 68.7381 146.498 73.919C146.286 66.306 146.01 60.9309 148.914 56.8859Z" fill="#E6E6E6"/>
<path d="M141.826 41.522C138.865 38.234 132.817 35.896 126.654 35.908C124.235 35.908 134.015 39.734 138.082 43.949C141.335 47.4528 144.013 51.4497 146.016 55.791C145.234 49.357 144.785 44.81 141.826 41.522Z" fill="#E6E6E6"/>
<path d="M147.695 46.385C150.154 42.96 155.831 40.3269 161.972 40.0289C164.383 39.9119 155.21 44.209 151.786 48.614C149.054 52.2975 146.978 56.4247 145.649 60.814C145.471 54.362 145.236 49.808 147.695 46.385Z" fill="#E6E6E6"/>
<path d="M147.054 98.908C145.209 98.908 143.433 98.2022 142.091 96.9353C140.749 95.6684 139.943 93.9364 139.837 92.094L139.199 81.031H154.909L154.271 92.094C154.165 93.9364 153.359 95.6684 152.017 96.9353C150.675 98.2022 148.899 98.908 147.054 98.908Z" fill="#E6E6E6"/>
<path d="M155.926 83.546H138.185L137.677 78.946H156.438L155.926 83.546Z" fill="#E6E6E6"/>
<path d="M124 184.664C177.07 184.664 220.091 182.151 220.091 179.052C220.091 175.953 177.07 173.44 124 173.44C70.9303 173.44 27.9089 175.953 27.9089 179.052C27.9089 182.151 70.9303 184.664 124 184.664Z" fill="#F5F5F5"/>
<path d="M125.939 173.689L121.801 174.155L120.275 164.771L124.413 164.305L125.939 173.689Z" fill="#FFC3BD"/>
<path d="M144.465 174.593H140.333L139.304 165.024H143.436L144.465 174.593Z" fill="#FFC3BD"/>
<path d="M139.993 174.112H145.03C145.112 174.112 145.191 174.14 145.255 174.191C145.319 174.243 145.364 174.314 145.382 174.394L146.198 178.067C146.217 178.157 146.216 178.249 146.194 178.338C146.172 178.427 146.131 178.51 146.073 178.581C146.015 178.651 145.941 178.708 145.858 178.746C145.775 178.785 145.684 178.804 145.593 178.802C143.972 178.774 142.793 178.679 140.749 178.679C139.493 178.679 135.705 178.809 133.971 178.809C132.271 178.809 132.01 177.094 132.72 176.939C135.904 176.239 138.303 175.282 139.32 174.366C139.505 174.201 139.745 174.11 139.993 174.112Z" fill="#263238"/>
<path d="M121.733 173.446L126.217 172.938C126.298 172.928 126.381 172.947 126.45 172.991C126.52 173.034 126.572 173.1 126.599 173.178L127.824 176.735C127.855 176.821 127.866 176.913 127.855 177.004C127.845 177.095 127.815 177.182 127.766 177.259C127.717 177.336 127.651 177.401 127.573 177.449C127.495 177.497 127.407 177.526 127.316 177.535C125.696 177.691 123.348 177.861 121.316 178.092C118.939 178.362 118.543 178.998 115.739 178.933C114.039 178.893 113.613 177.168 114.326 177.033C117.574 176.402 118.202 175.911 120.783 173.885C121.053 173.653 121.382 173.501 121.733 173.446Z" fill="#263238"/>
<path d="M125.383 53.177C123.995 54.323 122.629 55.319 121.216 56.339C119.803 57.359 118.36 58.306 116.875 59.225C115.39 60.144 113.866 61.025 112.268 61.825C110.634 62.6714 108.934 63.3811 107.183 63.947C106.72 64.095 106.269 64.217 105.749 64.347C105.24 64.4573 104.726 64.5397 104.209 64.594C103.278 64.694 102.402 64.739 101.529 64.779C99.7889 64.859 98.0819 64.857 96.3769 64.845C92.9669 64.804 89.5859 64.64 86.1899 64.34L86.1389 61.24C89.4739 60.811 92.8239 60.44 96.1389 60.067C97.7959 59.887 99.4489 59.685 101.064 59.474C101.864 59.365 102.664 59.237 103.402 59.1C103.719 59.044 104.033 58.9703 104.342 58.879C104.633 58.779 104.99 58.665 105.32 58.532C106.737 57.9567 108.113 57.2837 109.437 56.518C110.808 55.731 112.18 54.886 113.528 53.988C114.876 53.09 116.218 52.16 117.548 51.211C118.878 50.262 120.207 49.257 121.455 48.311L125.383 53.177Z" fill="#FFC3BD"/>
<path d="M129.422 49.6451C128.828 53.5511 120.604 59.5261 120.604 59.5261L114.704 52.2031C117.288 49.4448 120.029 46.8369 122.912 44.3921C125.567 42.2221 130.068 45.3951 129.422 49.6451Z" fill="#A073F0"/>
<path d="M87.2768 61.567L84.9308 59.897L84.6738 65.173C85.0285 65.1739 85.3779 65.088 85.6917 64.9227C86.0055 64.7575 86.274 64.5179 86.4738 64.225L87.2768 61.567Z" fill="#FFC3BD"/>
<path d="M82.8119 58.3611L82.3319 63.5321L84.6759 65.1731L84.9329 59.8971L82.8119 58.3611Z" fill="#FFC3BD"/>
<path opacity="0.2" d="M120.277 164.774L121.063 169.611L125.202 169.145L124.416 164.308L120.277 164.774Z" fill="black"/>
<path opacity="0.2" d="M143.438 165.025H139.304L139.836 169.957H143.97L143.438 165.025Z" fill="black"/>
<path d="M143.497 44.5172C143.805 44.5862 144.096 44.716 144.352 44.8991C144.609 45.0822 144.827 45.3148 144.992 45.5833C145.158 45.8517 145.268 46.1506 145.317 46.4623C145.365 46.7739 145.35 47.0921 145.274 47.3981C144.377 51.1196 143.701 54.8909 143.25 58.6921C142.859 61.8921 142.625 64.9491 142.479 67.7201C142.136 74.2151 142.279 79.1661 142.085 80.8441C138.854 80.6201 126.678 79.7731 120.039 79.3091C117.798 61.7651 120.424 50.5691 121.899 46.0201C122.125 45.3113 122.547 44.6812 123.117 44.2032C123.687 43.7252 124.382 43.419 125.119 43.3201C125.965 43.2091 126.977 43.1021 128.045 43.0391C128.419 43.0151 128.798 43.0021 129.184 42.9941C132.318 43.0312 135.448 43.2489 138.557 43.6461C139.147 43.7161 139.743 43.8031 140.323 43.8961C141.482 44.0901 142.584 44.3132 143.497 44.5172Z" fill="#A073F0"/>
<path d="M138.366 33.033C137.566 36.007 136.588 41.491 138.558 43.651C133.448 47.088 130.186 51.927 129.245 50.876C128.752 50.326 128.538 43.961 129.186 42.997C132.605 42.429 132.692 39.928 132.27 37.544L138.366 33.033Z" fill="#FFC3BD"/>
<path d="M138.162 42.418C138.162 42.418 129.835 46.103 128.731 54.343C131.025 51.687 136.092 48.797 136.092 48.797L133.857 48.155C135.278 47.6155 136.75 47.2196 138.25 46.973C138.002 45.835 139.324 43.565 139.324 43.565L138.162 42.418Z" fill="#A073F0"/>
<path d="M130.649 42.2852C130.649 42.2852 131.759 46.9912 128.732 54.3432C128.135 51.7771 127.317 49.2677 126.286 46.8432L128.325 47.3982C128.325 47.3982 128.225 46.4492 126.574 45.1872C127.262 44.1879 128.12 43.317 129.109 42.6142L130.649 42.2852Z" fill="#A073F0"/>
<path opacity="0.2" d="M135.881 34.874L132.273 37.542C132.38 38.0972 132.438 38.6607 132.446 39.226C133.746 39.126 135.606 37.843 135.837 36.508C135.95 35.9705 135.965 35.4169 135.881 34.874Z" fill="black"/>
<path d="M127.785 24.421C125.77 24.508 124.658 27.982 126.703 30.843C128.748 33.704 130.5 24.304 127.785 24.421Z" fill="#263238"/>
<path d="M137.722 27.4781C137.961 31.5721 138.309 33.9551 136.507 36.2881C133.797 39.7971 128.557 38.5391 127.1 34.5991C125.789 31.0531 125.618 24.9541 129.4 22.8591C130.232 22.3927 131.169 22.1468 132.123 22.1448C133.077 22.1428 134.015 22.3847 134.849 22.8475C135.683 23.3104 136.385 23.9788 136.888 24.7893C137.39 25.5998 137.678 26.5254 137.722 27.4781Z" fill="#FFC3BD"/>
<path d="M138.323 30.6241C137.228 29.9823 136.272 29.1292 135.51 28.1144C134.749 27.0996 134.196 25.9434 133.886 24.7131C132.686 24.9971 126.705 27.7491 124.866 24.7131C123.027 21.6771 125.341 19.8961 128.782 21.7651C127.26 19.0791 128.644 17.765 133.426 17.649C138.208 17.533 137.565 20.3051 137.565 20.3051C137.565 20.3051 141.185 18.7291 142.465 21.5051C143.948 24.6951 141.212 30.1421 138.323 30.6241Z" fill="#263238"/>
<path d="M136.747 19.572C136.791 19.572 138.558 19.997 140.594 17.948C140.229 19.696 137.067 20.86 137.067 20.86L136.747 19.572Z" fill="#263238"/>
<path d="M139.123 25.5609C137.216 24.9019 134.907 27.7269 135.76 31.1379C136.613 34.5489 141.692 26.4489 139.123 25.5609Z" fill="#263238"/>
<path d="M140.202 30.8831C140.027 31.8998 139.457 32.8059 138.616 33.4031C137.495 34.1851 136.485 33.2911 136.416 31.9971C136.358 30.8331 136.87 29.0231 138.177 28.7561C138.464 28.7025 138.759 28.7214 139.037 28.8112C139.315 28.9009 139.566 29.0586 139.767 29.27C139.968 29.4813 140.113 29.7396 140.189 30.0213C140.265 30.303 140.27 30.5993 140.202 30.8831Z" fill="#FFC3BD"/>
<path d="M126.253 125.863C127.246 113.777 134.53 80.3201 134.53 80.3201L120.036 79.3091C120.036 79.3091 114.447 112.52 114.019 125.124C113.573 138.229 118.844 167.355 118.844 167.355L125.795 166.564C125.795 166.564 125.256 137.999 126.253 125.863Z" fill="#A073F0"/>
<path opacity="0.5" d="M126.253 125.863C127.246 113.777 134.53 80.3201 134.53 80.3201L120.036 79.3091C120.036 79.3091 114.447 112.52 114.019 125.124C113.573 138.229 118.844 167.355 118.844 167.355L125.795 166.564C125.795 166.564 125.256 137.999 126.253 125.863Z" fill="white"/>
<path opacity="0.2" d="M129.07 91.6501C126.148 95.3861 126.096 108.507 127.226 118.201C128.303 111.208 130 102.327 131.487 94.9241L129.07 91.6501Z" fill="black"/>
<path d="M127.857 79.854C127.857 79.854 129.421 115.229 131.166 127.209C133.076 140.328 137.927 169.001 137.927 169.001H145.495C145.495 169.001 144.25 141.995 143.251 129.106C142.114 114.425 142.083 80.846 142.083 80.846L127.857 79.854Z" fill="#A073F0"/>
<path opacity="0.5" d="M127.857 79.854C127.857 79.854 129.421 115.229 131.166 127.209C133.076 140.328 137.927 169.001 137.927 169.001H145.495C145.495 169.001 144.25 141.995 143.251 129.106C142.114 114.425 142.083 80.846 142.083 80.846L127.857 79.854Z" fill="white"/>
<path d="M137.017 169.162H145.928V166.5L135.967 166.327L137.017 169.162Z" fill="#A073F0"/>
<path d="M118.541 168.138L126.825 167.199L126.525 164.522L117.248 165.431L118.541 168.138Z" fill="#A073F0"/>
<path d="M131.694 29.3551C131.734 29.6861 131.594 29.9751 131.374 30.0011C131.154 30.0271 130.95 29.7801 130.911 29.4491C130.872 29.1181 131.011 28.8291 131.231 28.8031C131.451 28.7771 131.655 29.0241 131.694 29.3551Z" fill="#263238"/>
<path d="M127.955 29.8041C127.995 30.1351 127.855 30.4241 127.635 30.4501C127.415 30.4761 127.211 30.2291 127.171 29.8981C127.131 29.5671 127.271 29.2781 127.491 29.2521C127.711 29.2261 127.915 29.4771 127.955 29.8041Z" fill="#263238"/>
<path d="M129.163 29.8262C128.89 30.8849 128.473 31.9011 127.923 32.8462C128.168 32.9806 128.44 33.0598 128.719 33.0783C128.998 33.0968 129.278 33.0541 129.539 32.9532L129.163 29.8262Z" fill="#ED847E"/>
<path d="M132.711 28.006C132.676 28.0165 132.639 28.0173 132.604 28.0083C132.569 27.9994 132.536 27.9809 132.511 27.955C132.346 27.7732 132.139 27.6331 131.909 27.5462C131.68 27.4593 131.432 27.428 131.188 27.455C131.137 27.4636 131.085 27.4522 131.042 27.4231C130.999 27.394 130.97 27.3496 130.959 27.299C130.954 27.2737 130.954 27.2476 130.959 27.2223C130.964 27.197 130.974 27.1729 130.988 27.1515C131.003 27.1302 131.022 27.112 131.043 27.098C131.065 27.084 131.089 27.0745 131.115 27.07C131.423 27.0301 131.737 27.0648 132.029 27.1713C132.321 27.2778 132.584 27.453 132.794 27.682C132.83 27.7193 132.85 27.7689 132.85 27.8205C132.85 27.8722 132.83 27.9218 132.794 27.959C132.771 27.9814 132.742 27.9976 132.711 28.006Z" fill="#263238"/>
<path d="M131.274 34.2732C131.746 34.1739 132.187 33.9625 132.56 33.6569C132.933 33.3512 133.227 32.9603 133.417 32.5172C133.426 32.4906 133.425 32.4615 133.412 32.4362C133.4 32.4109 133.378 32.3915 133.352 32.3822C133.325 32.3729 133.296 32.3745 133.271 32.3867C133.246 32.3989 133.226 32.4206 133.217 32.4472C133.035 32.8548 132.76 33.214 132.413 33.4957C132.067 33.7775 131.659 33.9739 131.223 34.0692C131.209 34.0723 131.197 34.078 131.185 34.086C131.174 34.094 131.165 34.1041 131.157 34.1158C131.15 34.1275 131.145 34.1405 131.143 34.1541C131.14 34.1678 131.141 34.1817 131.144 34.1952C131.147 34.2086 131.153 34.2213 131.161 34.2326C131.169 34.2439 131.179 34.2534 131.191 34.2608C131.202 34.2681 131.215 34.2731 131.229 34.2754C131.243 34.2777 131.256 34.2773 131.27 34.2742L131.274 34.2732Z" fill="#263238"/>
<path d="M126.196 28.71C126.157 28.7231 126.114 28.7231 126.075 28.71C126.026 28.6921 125.987 28.6563 125.964 28.6098C125.942 28.5634 125.938 28.5101 125.954 28.461C126.048 28.1644 126.212 27.8948 126.432 27.6751C126.652 27.4554 126.922 27.2921 127.219 27.199C127.269 27.1877 127.322 27.1961 127.366 27.2225C127.41 27.249 127.442 27.2914 127.456 27.341C127.467 27.3911 127.459 27.4436 127.433 27.4877C127.406 27.5318 127.364 27.5642 127.315 27.578C127.081 27.6559 126.87 27.788 126.698 27.9636C126.525 28.1392 126.397 28.3532 126.324 28.588C126.313 28.6168 126.296 28.6428 126.274 28.6639C126.252 28.6851 126.225 28.7009 126.196 28.71Z" fill="#263238"/>
<path d="M138.632 174.834C138.349 174.857 138.067 174.782 137.832 174.623C137.759 174.56 137.702 174.48 137.667 174.39C137.632 174.299 137.62 174.202 137.632 174.106C137.632 174.049 137.647 173.993 137.677 173.944C137.707 173.895 137.749 173.855 137.8 173.829C138.259 173.593 139.59 174.413 139.74 174.507C139.756 174.518 139.769 174.533 139.777 174.55C139.785 174.568 139.788 174.588 139.785 174.607C139.782 174.626 139.773 174.644 139.76 174.658C139.747 174.672 139.73 174.682 139.711 174.687C139.358 174.776 138.996 174.825 138.632 174.834ZM138.018 173.979C137.974 173.977 137.931 173.985 137.891 174.003C137.871 174.014 137.854 174.031 137.843 174.052C137.832 174.072 137.827 174.095 137.829 174.118C137.82 174.184 137.827 174.25 137.851 174.312C137.874 174.374 137.912 174.43 137.962 174.473C138.424 174.684 138.948 174.71 139.429 174.547C138.998 174.268 138.517 174.075 138.013 173.979H138.018Z" fill="#A073F0"/>
<path d="M139.685 174.689C139.668 174.689 139.652 174.685 139.638 174.677C139.211 174.445 138.384 173.539 138.471 173.077C138.485 173.005 138.524 172.94 138.581 172.893C138.637 172.846 138.708 172.821 138.782 172.82C138.856 172.811 138.932 172.818 139.004 172.839C139.075 172.861 139.142 172.897 139.199 172.946C139.679 173.339 139.778 174.531 139.781 174.581C139.782 174.599 139.779 174.616 139.771 174.632C139.763 174.648 139.751 174.661 139.737 174.671C139.722 174.682 139.704 174.688 139.685 174.689ZM138.851 173.014H138.806C138.679 173.03 138.668 173.088 138.663 173.114C138.611 173.386 139.138 174.07 139.563 174.393C139.535 173.921 139.365 173.467 139.075 173.093C139.012 173.041 138.932 173.013 138.851 173.014Z" fill="#A073F0"/>
<path d="M121.397 174.057L121.381 174.064C120.734 174.271 119.576 174.564 119.081 174.218C119.008 174.168 118.948 174.1 118.907 174.021C118.866 173.942 118.845 173.855 118.845 173.766C118.841 173.713 118.851 173.659 118.874 173.61C118.897 173.562 118.932 173.52 118.976 173.489C119.441 173.162 121.188 173.805 121.386 173.88C121.403 173.887 121.417 173.899 121.428 173.914C121.439 173.929 121.445 173.947 121.446 173.966C121.447 173.984 121.443 174.002 121.434 174.019C121.426 174.035 121.413 174.049 121.397 174.058V174.057ZM119.114 173.633L119.091 173.647C119.073 173.659 119.059 173.676 119.05 173.695C119.041 173.715 119.038 173.737 119.041 173.758C119.04 173.817 119.053 173.875 119.079 173.927C119.106 173.979 119.145 174.024 119.193 174.058C119.801 174.248 120.457 174.212 121.041 173.958C120.436 173.69 119.773 173.578 119.113 173.633H119.114Z" fill="#A073F0"/>
<path d="M121.397 174.057C121.373 174.069 121.346 174.071 121.321 174.063C120.801 173.897 119.721 173.12 119.741 172.648C119.746 172.537 119.809 172.392 120.073 172.335C120.168 172.314 120.267 172.312 120.363 172.33C120.459 172.349 120.55 172.386 120.631 172.441C121.055 172.846 121.34 173.375 121.447 173.951C121.45 173.968 121.449 173.985 121.444 174.001C121.439 174.018 121.429 174.032 121.417 174.044C121.411 174.049 121.404 174.053 121.397 174.057ZM120.006 172.567C119.939 172.603 119.937 172.645 119.936 172.661C119.922 172.945 120.668 173.567 121.209 173.813C121.109 173.352 120.87 172.933 120.524 172.613C120.465 172.572 120.398 172.544 120.327 172.53C120.257 172.517 120.184 172.518 120.114 172.534C120.077 172.54 120.04 172.551 120.006 172.567Z" fill="#A073F0"/>
<path d="M146.983 50.4771C146.878 52.0911 146.688 53.5941 146.491 55.1461C146.294 56.6981 146.029 58.2191 145.738 59.7541C145.162 62.8893 144.312 65.9678 143.197 68.9541L142.706 70.1111L142.582 70.4001L142.551 70.4721L142.5 70.5821L142.356 70.8671C142.165 71.2134 141.937 71.5374 141.675 71.8331C141.244 72.3183 140.74 72.7332 140.181 73.0631C139.728 73.3325 139.253 73.563 138.762 73.7521C137.124 74.3429 135.411 74.7004 133.674 74.8141C130.519 75.0498 127.348 74.9314 124.22 74.4611L124.333 71.3611L126.519 71.1141C127.252 71.0271 127.981 70.9141 128.706 70.8141C130.153 70.6011 131.585 70.3631 132.95 70.0461C134.212 69.7891 135.44 69.3822 136.606 68.8341C136.92 68.702 137.196 68.4917 137.406 68.2231C137.419 68.1521 137.261 68.4631 137.447 67.9661L137.774 67.0101C138.575 64.2695 139.188 61.4773 139.608 58.6531C139.843 57.2151 140.044 55.7641 140.238 54.3091C140.432 52.8541 140.592 51.3691 140.745 49.9741L146.983 50.4771Z" fill="#FFC3BD"/>
<path d="M147.343 47.4811C149.366 50.8741 147.643 61.5381 147.643 61.5381L137.043 59.5791C137.043 59.5791 136.469 53.4791 138.487 48.7851C140.678 43.6761 144.892 43.3701 147.343 47.4811Z" fill="#A073F0"/>
<path d="M121.365 80.952L115.74 54.788C115.47 53.6708 114.844 52.6715 113.957 51.941C113.069 51.2105 111.968 50.7883 110.82 50.738H89.2668C90.4154 50.7881 91.5165 51.2102 92.4041 51.9407C93.2918 52.6713 93.9178 53.6706 94.1879 54.788L99.8129 80.952C100.083 82.0693 100.709 83.0685 101.596 83.7991C102.484 84.5296 103.585 84.9518 104.733 85.002H126.285C125.137 84.9518 124.036 84.5296 123.148 83.7991C122.261 83.0685 121.635 82.0693 121.365 80.952Z" fill="#263238"/>
<path opacity="0.7" d="M121.365 80.952L115.74 54.788C115.47 53.6708 114.844 52.6715 113.957 51.941C113.069 51.2105 111.968 50.7883 110.82 50.738H89.2668C90.4154 50.7881 91.5165 51.2102 92.4041 51.9407C93.2918 52.6713 93.9178 53.6706 94.1879 54.788L99.8129 80.952C100.083 82.0693 100.709 83.0685 101.596 83.7991C102.484 84.5296 103.585 84.9518 104.733 85.002H126.285C125.137 84.9518 124.036 84.5296 123.148 83.7991C122.261 83.0685 121.635 82.0693 121.365 80.952Z" fill="#A073F0"/>
<path d="M89.2669 50.738H110.819C109.715 50.7587 108.657 51.1817 107.844 51.9275C107.03 52.6733 106.517 53.6905 106.401 54.788L100.81 115.588C100.693 116.685 100.18 117.703 99.3666 118.448C98.5531 119.194 97.4953 119.617 96.3919 119.638H82.9399C82.4217 119.648 81.9074 119.546 81.4316 119.341C80.9557 119.136 80.5292 118.831 80.1805 118.448C79.8319 118.064 79.5692 117.611 79.4101 117.118C79.251 116.624 79.1991 116.103 79.2578 115.588L84.8499 54.788C84.9662 53.6907 85.4792 52.6736 86.2925 51.9278C87.1059 51.182 88.1636 50.7589 89.2669 50.738Z" fill="#A073F0"/>
<path d="M92.7099 115.587C92.6511 116.102 92.703 116.624 92.8621 117.117C93.0213 117.61 93.2839 118.064 93.6326 118.447C93.9812 118.83 94.4077 119.135 94.8836 119.34C95.3595 119.546 95.8737 119.647 96.3919 119.637H74.8399C74.3217 119.647 73.8074 119.546 73.3314 119.341C72.8554 119.135 72.4288 118.831 72.0802 118.447C71.7315 118.064 71.4689 117.61 71.3098 117.117C71.1507 116.624 71.0989 116.102 71.1579 115.587H92.7099Z" fill="#263238"/>
<path opacity="0.7" d="M92.7099 115.587C92.6511 116.102 92.703 116.624 92.8621 117.117C93.0213 117.61 93.2839 118.064 93.6326 118.447C93.9812 118.83 94.4077 119.135 94.8836 119.34C95.3595 119.546 95.8737 119.647 96.3919 119.637H74.8399C74.3217 119.647 73.8074 119.546 73.3314 119.341C72.8554 119.135 72.4288 118.831 72.0802 118.447C71.7315 118.064 71.4689 117.61 71.3098 117.117C71.1507 116.624 71.0989 116.102 71.1579 115.587H92.7099Z" fill="#A073F0"/>
<g opacity="0.5">
<path opacity="0.5" d="M102.666 57.55H88.0819C87.9693 57.5515 87.8576 57.5291 87.7543 57.4842C87.6511 57.4393 87.5585 57.3729 87.4829 57.2895C87.4072 57.2061 87.3501 57.1075 87.3155 57.0003C87.2808 56.8932 87.2694 56.7799 87.2819 56.668C87.3078 56.4292 87.4197 56.2081 87.5967 56.0458C87.7737 55.8835 88.0038 55.7911 88.2439 55.786H102.826C102.938 55.7844 103.05 55.8068 103.153 55.8518C103.257 55.8967 103.349 55.963 103.425 56.0464C103.501 56.1299 103.558 56.2284 103.592 56.3356C103.627 56.4427 103.638 56.556 103.626 56.668C103.6 56.9064 103.488 57.1273 103.312 57.2895C103.135 57.4518 102.906 57.5443 102.666 57.55Z" fill="white"/>
<path opacity="0.5" d="M102.232 62.321H87.6479C87.5353 62.3225 87.4237 62.3001 87.3204 62.2552C87.2171 62.2102 87.1246 62.1439 87.0489 62.0605C86.9732 61.9771 86.9162 61.8785 86.8815 61.7713C86.8469 61.6642 86.8354 61.5509 86.8479 61.4389C86.8738 61.2002 86.9858 60.979 87.1628 60.8167C87.3398 60.6544 87.5698 60.5621 87.8099 60.557H102.394C102.507 60.5554 102.618 60.5778 102.721 60.6227C102.825 60.6677 102.917 60.734 102.993 60.8174C103.069 60.9009 103.126 60.9994 103.16 61.1066C103.195 61.2137 103.206 61.327 103.194 61.4389C103.168 61.6778 103.056 61.8991 102.879 62.0614C102.702 62.2238 102.472 62.316 102.232 62.321Z" fill="white"/>
<path opacity="0.5" d="M98.223 67.0919H87.214C87.1014 67.0935 86.9897 67.0711 86.8864 67.0262C86.7832 66.9812 86.6906 66.9149 86.6149 66.8315C86.5393 66.748 86.4822 66.6495 86.4476 66.5423C86.4129 66.4352 86.4015 66.3219 86.414 66.2099C86.4399 65.9712 86.5518 65.75 86.7288 65.5877C86.9058 65.4254 87.1359 65.3331 87.376 65.328H98.385C98.4976 65.3264 98.6092 65.3488 98.7125 65.3937C98.8158 65.4386 98.9083 65.505 98.984 65.5884C99.0596 65.6719 99.1167 65.7704 99.1513 65.8776C99.186 65.9847 99.1974 66.098 99.185 66.2099C99.159 66.4487 99.0471 66.6699 98.8701 66.8322C98.6931 66.9945 98.4631 67.0868 98.223 67.0919Z" fill="white"/>
<path opacity="0.5" d="M90.514 71.862H86.781C86.6684 71.8635 86.5567 71.8411 86.4534 71.7962C86.3502 71.7513 86.2576 71.6849 86.182 71.6015C86.1063 71.5181 86.0492 71.4195 86.0146 71.3124C85.9799 71.2052 85.9685 71.0919 85.981 70.98C86.0067 70.7413 86.1184 70.5202 86.2952 70.3578C86.4721 70.1955 86.702 70.1032 86.942 70.098H90.676C90.7886 70.0964 90.9002 70.1189 91.0035 70.1638C91.1068 70.2087 91.1993 70.2751 91.275 70.3585C91.3507 70.4419 91.4077 70.5404 91.4424 70.6476C91.477 70.7548 91.4885 70.8681 91.476 70.98C91.45 71.2187 91.3381 71.4399 91.1611 71.6022C90.9841 71.7645 90.7541 71.8568 90.514 71.862Z" fill="white"/>
<path opacity="0.5" d="M100.93 76.633H86.3419C86.2293 76.6345 86.1176 76.6121 86.0144 76.5672C85.9111 76.5223 85.8185 76.4559 85.7429 76.3725C85.6672 76.2891 85.6102 76.1905 85.5755 76.0834C85.5409 75.9762 85.5294 75.8629 85.5419 75.751C85.5678 75.5122 85.6797 75.291 85.8568 75.1288C86.0338 74.9665 86.2638 74.8741 86.5039 74.869H101.088C101.2 74.8674 101.312 74.8899 101.415 74.9348C101.519 74.9797 101.611 75.046 101.687 75.1295C101.763 75.2129 101.82 75.3114 101.854 75.4186C101.889 75.5257 101.9 75.6391 101.888 75.751C101.862 75.9891 101.751 76.2097 101.575 76.3719C101.398 76.5341 101.169 76.6269 100.93 76.633Z" fill="white"/>
<path opacity="0.5" d="M94.7529 81.404H85.9129C85.8003 81.4055 85.6887 81.3831 85.5854 81.3382C85.4821 81.2933 85.3896 81.2269 85.3139 81.1435C85.2382 81.0601 85.1812 80.9615 85.1465 80.8544C85.1119 80.7472 85.1004 80.6339 85.1129 80.522C85.1386 80.2833 85.2503 80.0622 85.4272 79.8998C85.604 79.7375 85.8339 79.6451 86.0739 79.64H94.9139C95.0265 79.6384 95.1382 79.6609 95.2415 79.7058C95.3447 79.7507 95.4373 79.817 95.5129 79.9005C95.5886 79.9839 95.6456 80.0824 95.6803 80.1896C95.715 80.2967 95.7264 80.41 95.7139 80.522C95.688 80.7606 95.5763 80.9816 95.3994 81.1439C95.2226 81.3061 94.9929 81.3986 94.7529 81.404Z" fill="white"/>
<path opacity="0.5" d="M100.063 86.174H85.479C85.3664 86.1755 85.2547 86.1531 85.1514 86.1082C85.0482 86.0633 84.9556 85.9969 84.88 85.9135C84.8043 85.8301 84.7472 85.7315 84.7126 85.6244C84.6779 85.5172 84.6665 85.4039 84.679 85.292C84.7049 85.0532 84.8168 84.8321 84.9938 84.6698C85.1709 84.5075 85.4009 84.4151 85.641 84.41H100.226C100.339 84.4084 100.45 84.4309 100.554 84.4758C100.657 84.5207 100.749 84.5871 100.825 84.6705C100.901 84.7539 100.958 84.8525 100.992 84.9596C101.027 85.0668 101.038 85.1801 101.026 85.292C101 85.5309 100.888 85.7522 100.711 85.9145C100.534 86.0768 100.303 86.1691 100.063 86.174Z" fill="white"/>
<path opacity="0.5" d="M96.0539 90.945H85.0449C84.9323 90.9465 84.8206 90.9241 84.7173 90.8792C84.6141 90.8343 84.5215 90.7679 84.4459 90.6845C84.3702 90.6011 84.3132 90.5025 84.2785 90.3954C84.2439 90.2882 84.2324 90.1749 84.2449 90.063C84.2708 89.8242 84.3827 89.6031 84.5598 89.4408C84.7368 89.2785 84.9668 89.1861 85.2069 89.181H96.2159C96.3285 89.1794 96.4402 89.2019 96.5434 89.2468C96.6467 89.2917 96.7393 89.3581 96.8149 89.4415C96.8906 89.5249 96.9476 89.6234 96.9823 89.7306C97.0169 89.8378 97.0284 89.9511 97.0159 90.063C96.99 90.3017 96.8781 90.5229 96.701 90.6852C96.524 90.8475 96.294 90.9398 96.0539 90.945Z" fill="white"/>
<path opacity="0.5" d="M88.345 95.715H84.609C84.4964 95.7165 84.3847 95.6941 84.2814 95.6492C84.1782 95.6043 84.0856 95.5379 84.01 95.4545C83.9343 95.3711 83.8773 95.2725 83.8426 95.1654C83.808 95.0582 83.7965 94.9449 83.809 94.833C83.8349 94.5943 83.9468 94.3731 84.1238 94.2108C84.3009 94.0485 84.5309 93.9562 84.771 93.951H88.509C88.6216 93.9495 88.7332 93.9719 88.8365 94.0168C88.9398 94.0617 89.0323 94.1281 89.108 94.2115C89.1837 94.2949 89.2407 94.3935 89.2754 94.5006C89.31 94.6078 89.3215 94.7211 89.309 94.833C89.283 95.0721 89.1708 95.2935 88.9934 95.4559C88.8159 95.6182 88.5854 95.7103 88.345 95.715Z" fill="white"/>
<path opacity="0.5" d="M98.761 100.487H84.177C84.0644 100.489 83.9527 100.466 83.8494 100.421C83.7462 100.376 83.6536 100.31 83.578 100.226C83.5023 100.143 83.4453 100.045 83.4106 99.9374C83.3759 99.8302 83.3645 99.7169 83.377 99.605C83.4029 99.3662 83.5148 99.1451 83.6918 98.9828C83.8689 98.8205 84.0989 98.7281 84.339 98.723H98.923C99.0356 98.7214 99.1472 98.7439 99.2505 98.7888C99.3538 98.8337 99.4463 98.9 99.522 98.9835C99.5977 99.0669 99.6547 99.1654 99.6894 99.2726C99.724 99.3798 99.7355 99.4931 99.723 99.605C99.6971 99.8437 99.5851 100.065 99.4081 100.227C99.2311 100.389 99.0011 100.482 98.761 100.487Z" fill="white"/>
<path opacity="0.5" d="M92.5839 105.257H83.7439C83.6313 105.259 83.5196 105.236 83.4163 105.191C83.3131 105.146 83.2205 105.08 83.1449 104.997C83.0692 104.913 83.0121 104.815 82.9775 104.707C82.9428 104.6 82.9314 104.487 82.9439 104.375C82.9696 104.136 83.0814 103.915 83.2585 103.753C83.4356 103.59 83.6657 103.498 83.9059 103.493H92.7449C92.8575 103.491 92.9691 103.514 93.0724 103.559C93.1757 103.604 93.2682 103.67 93.3439 103.753C93.4195 103.837 93.4766 103.935 93.5112 104.043C93.5459 104.15 93.5574 104.263 93.5449 104.375C93.519 104.614 93.4072 104.835 93.2304 104.997C93.0536 105.159 92.8238 105.252 92.5839 105.257Z" fill="white"/>
<path opacity="0.5" d="M97.8929 110.028H83.3089C83.1963 110.03 83.0847 110.007 82.9814 109.962C82.8781 109.917 82.7856 109.851 82.7099 109.768C82.6343 109.684 82.5772 109.586 82.5425 109.478C82.5079 109.371 82.4964 109.258 82.5089 109.146C82.5349 108.907 82.6468 108.686 82.8238 108.524C83.0008 108.361 83.2308 108.269 83.4709 108.264H98.0529C98.1655 108.262 98.2772 108.285 98.3805 108.33C98.4837 108.375 98.5763 108.441 98.6519 108.524C98.7276 108.608 98.7847 108.706 98.8193 108.814C98.854 108.921 98.8654 109.034 98.8529 109.146C98.827 109.384 98.7154 109.605 98.5388 109.768C98.3622 109.93 98.1327 110.022 97.8929 110.028Z" fill="white"/>
</g>
<path d="M125.604 71.699L122.438 68.948L120.954 74.012C120.954 74.012 124.17 75.756 125.284 74.155L125.604 71.699Z" fill="#FFC3BD"/>
<path d="M118.989 68.75L117.959 72.994L120.951 74.014L122.435 68.949L118.989 68.75Z" fill="#FFC3BD"/>
</svg>
