<svg width="253" height="177" viewBox="0 0 253 177" fill="none" xmlns="http://www.w3.org/2000/svg">
<g clip-path="url(#clip0_884_18716)">
<path d="M253 177H0C2.77225 169.927 7.89178 163.927 15.1087 162.147C25.6659 159.547 36.8382 166.697 47.3719 164.008C53.3565 162.482 58.068 158.036 63.0188 154.344C81.6964 140.411 107.291 136.294 129.394 143.667C140.947 147.52 151.473 154.257 163.308 157.123C178.611 160.828 194.614 157.755 210.351 157.249C225.677 156.757 247.637 163.003 253 177Z" fill="#F3F5FD"/>
<path d="M200.936 16H49.0742V126.028H200.936V16Z" fill="#DEE8F5"/>
<path d="M200.936 16H49.0742V25.0636H200.936V16Z" fill="#C1D8ED"/>
<path d="M195.85 22.8059C197.105 22.8059 198.123 21.7877 198.123 20.5318C198.123 19.2759 197.105 18.2578 195.85 18.2578C194.594 18.2578 193.577 19.2759 193.577 20.5318C193.577 21.7877 194.594 22.8059 195.85 22.8059Z" fill="white"/>
<path d="M160.216 30.9636H55.7363V48.7067H160.216V30.9636Z" fill="white"/>
<path d="M160.216 54.2273H55.7363V71.9704H160.216V54.2273Z" fill="#C1D8ED"/>
<path d="M160.216 77.4912H55.7363V95.2343H160.216V77.4912Z" fill="white"/>
<path d="M160.216 100.755H55.7363V118.498H160.216V100.755Z" fill="white"/>
<path d="M194.851 31.4375H166.531V56.0738H194.851V31.4375Z" fill="white"/>
<path d="M194.851 62.7202H166.531V87.3565H194.851V62.7202Z" fill="white"/>
<path d="M194.851 94.3354H166.531V118.972H194.851V94.3354Z" fill="white"/>
<path d="M95.9322 174.193L90.8335 173.587C91.0631 171.656 91.3225 169.337 91.3401 168.957C91.3401 168.981 91.3401 169.001 91.3401 169.017H96.4748C96.4736 169.17 96.4736 169.639 95.9322 174.193Z" fill="#FFC3BD"/>
<path d="M75.4726 174.807L70.3379 174.79C70.3379 174.79 70.3552 169.486 70.3552 169.016H75.4899C75.4899 169.487 75.4726 174.807 75.4726 174.807Z" fill="#FFC3BD"/>
<path opacity="0.5" d="M88.7815 172.571L97.8283 172.417C97.4034 161.645 97.3775 150.347 97.2449 139.55C95.4796 127.912 94.5497 115.132 92.3706 103.578L92.3054 103.597L92.1142 102.294L73.5126 101.144C73.5126 101.144 72.9747 110.264 72.7889 113.302C71.8825 128.048 70.1215 155.364 69.0166 172.277L78.0312 173.039C79.6554 156.457 81.9245 132.295 83.4705 114.876C85.2459 123.356 86.698 132.138 88.2419 140.546C88.5487 151.074 88.8096 162.077 88.7815 172.571Z" fill="#A073F0"/>
<path d="M81.7152 176.794C81.9816 176.793 82.2367 176.686 82.4242 176.496C82.6117 176.307 82.7164 176.051 82.7153 175.784C82.7153 175.76 82.7153 175.735 82.7121 175.711C82.6972 175.52 82.6281 175.337 82.5129 175.184C82.3977 175.031 82.2413 174.915 82.0619 174.848L76.0854 172.845C75.9696 172.807 75.847 172.794 75.7257 172.807C75.6045 172.821 75.4877 172.86 75.3832 172.923C74.5615 173.493 73.5787 173.785 72.5791 173.755C71.8007 173.699 71.0534 173.426 70.4226 172.967C70.3671 172.921 70.2999 172.893 70.2287 172.884C70.1576 172.875 70.0854 172.887 70.0207 172.918C69.9559 172.948 69.9013 172.997 69.863 173.058C69.8248 173.118 69.8045 173.189 69.8047 173.26V176.184C69.8047 176.358 69.8737 176.524 69.9965 176.647C70.1193 176.77 70.2858 176.839 70.4595 176.839H70.4619L81.7152 176.794Z" fill="#C1D8ED"/>
<path d="M102.188 176.794C102.32 176.793 102.45 176.767 102.572 176.716C102.694 176.665 102.804 176.59 102.897 176.496C102.99 176.403 103.063 176.292 103.113 176.17C103.163 176.047 103.188 175.917 103.188 175.785C103.188 175.76 103.188 175.736 103.185 175.711C103.17 175.52 103.101 175.338 102.986 175.185C102.871 175.032 102.714 174.915 102.535 174.848L96.5583 172.846C96.4426 172.807 96.3199 172.794 96.1986 172.808C96.0774 172.821 95.9606 172.861 95.8561 172.924C95.0344 173.494 94.0516 173.785 93.052 173.755C92.2736 173.7 91.5263 173.427 90.8955 172.967C90.84 172.922 90.7728 172.893 90.7016 172.884C90.6304 172.875 90.5582 172.887 90.4934 172.918C90.4286 172.949 90.3739 172.997 90.3356 173.058C90.2974 173.119 90.2772 173.189 90.2773 173.261V176.184C90.2772 176.271 90.2941 176.356 90.3271 176.436C90.36 176.515 90.4083 176.588 90.4692 176.649C90.5301 176.709 90.6025 176.758 90.6821 176.791C90.7617 176.824 90.847 176.84 90.9331 176.84H90.9358L102.188 176.794Z" fill="#C1D8ED"/>
<path d="M79.377 75.5593C79.377 75.5593 81.3433 74.7144 81.3433 69.5462L85.2958 69.1433C85.2958 69.1433 84.4811 73.7102 86.331 75.3323L79.377 75.5593Z" fill="#FFC3BD"/>
<path d="M79.2975 67.3743C79.4393 68.9541 80.168 70.4987 81.5 71.1144C82.9482 71.8317 84.5498 72.1835 86.165 72.1391C90.4557 72.1391 90.4073 62.3742 88.5382 60.3238C86.6692 58.2733 80.6325 58.98 79.652 62.0706C79.1452 63.6705 79.1623 65.8709 79.2975 67.3743Z" fill="#FFC3BD"/>
<path d="M68.036 109.96C68.036 110.689 68.4209 113.126 67.802 113.301C67.4308 113.405 66.9927 111.588 66.9927 111.588" fill="#FFC3BD"/>
<path d="M65.1149 109.577C65.1149 109.577 63.0942 114.497 65.399 117.324C65.4578 117.396 65.5368 117.448 65.6259 117.474C65.715 117.501 65.8099 117.499 65.8982 117.471C65.9866 117.442 66.0643 117.388 66.1212 117.314C66.178 117.241 66.2115 117.152 66.2171 117.059C66.3291 115.154 66.7132 111.239 67.9692 111.696V108.623" fill="#FFC3BD"/>
<path d="M110.677 83.362C110.677 83.362 113.499 81.1192 113.699 80.3137C113.898 79.5082 111.911 77.9237 111.911 77.9237C111.911 77.9237 114.553 75.2573 114.026 74.8723C113.405 74.4161 110.338 78.2926 110.338 78.2926C110.338 78.2926 110.772 76.8983 110.231 76.8065C110.01 76.7689 109.834 76.9868 109.487 77.9739C109.091 79.0991 108.3 80.7907 108.3 80.7907L110.677 83.362Z" fill="#FFC3BD"/>
<path d="M107.707 80.3801L99.3595 89.7754L92.8311 78.0838C92.213 76.2367 90.8058 74.9994 87.9353 74.8761C86.9536 74.834 82.1634 74.8271 78.6564 74.8271C76.3001 74.8271 74.3658 75.5505 73.2488 76.6682C72.6862 77.223 72.2652 77.905 72.0212 78.6567L71.9874 78.6443L66.3747 93.9127C66.3118 94.084 66.2666 94.2612 66.2397 94.4416L63.9746 109.71L69.2482 110.492L71.4732 95.4969L73.7398 89.3307C73.9761 90.2784 74.1051 91.2497 74.1244 92.2263C74.1244 97.3634 71.8016 99.6672 71.9727 102.304C72.2417 106.449 92.3717 105.469 93.3974 103.115C94.4534 100.687 92.31 99.1907 92.4039 91.2483C92.414 90.384 92.481 89.4796 92.5726 88.5591L96.5337 95.6532C96.741 96.0248 97.0342 96.3414 97.3888 96.5764C97.7435 96.8115 98.1491 96.9582 98.572 97.0043C98.9949 97.0504 99.4226 96.9946 99.8195 96.8415C100.216 96.6884 100.571 96.4425 100.853 96.1244L111.828 83.2816L107.707 80.3801Z" fill="#A073F0"/>
<path d="M85.5213 66.6757C85.717 66.6757 85.8756 66.517 85.8756 66.3213C85.8756 66.1255 85.717 65.9668 85.5213 65.9668C85.3256 65.9668 85.167 66.1255 85.167 66.3213C85.167 66.517 85.3256 66.6757 85.5213 66.6757Z" fill="#367CFF"/>
<path d="M84.8252 65.6193C84.7833 65.6191 84.7431 65.603 84.7125 65.5744C84.6819 65.5458 84.6632 65.5068 84.6601 65.465C84.657 65.4232 84.6698 65.3818 84.6959 65.349C84.7219 65.3162 84.7594 65.2945 84.8008 65.2881L85.7411 65.1413C85.784 65.1362 85.8271 65.1479 85.8615 65.174C85.8958 65.2001 85.9188 65.2385 85.9254 65.2811C85.932 65.3238 85.9218 65.3673 85.897 65.4026C85.8722 65.4379 85.8346 65.4622 85.7922 65.4703L84.8519 65.6171C84.8431 65.6186 84.8341 65.6193 84.8252 65.6193Z" fill="#367CFF"/>
<path d="M88.1183 63.5743C86.4405 71.1038 84.8954 73.1166 81.0053 71.609C80.1133 71.2633 77.9763 69.1434 77.7624 64.6323C77.6748 63.1259 78.1412 61.6395 79.0736 60.4535C80.0059 59.2674 81.3398 58.4637 82.8237 58.1938C90.528 57.1218 90.7984 64.0816 90.7984 64.0816C86.932 64.7448 81.6662 63.6491 81.6662 63.6491" fill="#0F1011"/>
<path d="M88.2994 67.8257C88.3022 68.0232 88.266 68.2193 88.1929 68.4028C88.1199 68.5862 88.0114 68.7535 87.8737 68.895C87.736 69.0365 87.5717 69.1495 87.3903 69.2274C87.209 69.3054 87.014 69.3468 86.8166 69.3493C86.6192 69.3518 86.4233 69.3153 86.24 69.242C86.0567 69.1687 85.8896 69.06 85.7484 68.922C85.6071 68.7841 85.4944 68.6196 85.4167 68.438C85.339 68.2565 85.2979 68.0614 85.2956 67.8639V67.8257C85.289 67.4338 85.4383 67.0554 85.7105 66.7736C85.9828 66.4918 86.3558 66.3297 86.7475 66.323C86.7641 66.323 86.781 66.323 86.7964 66.323C87.8674 66.3758 88.2994 66.9957 88.2994 67.8257Z" fill="#FFC3BD"/>
<path d="M73.2699 65.995C73.1231 62.3677 73.9498 60.1695 75.1328 59.0017C76.2998 57.8495 80.0533 56.9943 81.6401 61.491C82.6756 64.4264 82.3404 65.436 82.7629 70.0689C83.1854 74.7019 84.2764 74.6955 84.4811 78.9588C84.6989 83.4917 82.8541 87.0331 77.9967 87.003C74.031 86.9786 71.5104 85.072 71.1468 81.0868C70.6252 75.3677 73.5574 73.1035 73.2699 65.995Z" fill="#0F1011"/>
<path d="M25.5063 163.057C23.5148 162.485 22.0157 160.702 21.4201 158.717C20.8245 156.731 21.0343 154.577 21.6157 152.587C22.0903 150.963 22.8099 149.394 22.9872 147.712C23.5777 142.11 18.1459 136.386 20.7025 131.367C21.5289 129.744 23.1283 128.476 23.4136 126.676C23.6495 125.189 22.917 123.743 22.5527 122.281C22.0517 120.269 22.3057 117.987 23.6102 116.376C24.9146 114.765 27.3798 114.061 29.1772 115.093C31.5281 116.442 31.732 119.773 31.1279 122.417C30.5237 125.06 29.4038 127.779 30.142 130.388C30.8457 132.875 33.1355 134.748 33.5461 137.299C33.8884 139.421 32.8524 141.489 32.3969 143.589C31.6819 146.889 32.4096 150.31 32.4406 153.687C32.4717 157.063 31.5208 160.85 25.5063 163.057Z" fill="#8DDBE0"/>
<path d="M22.433 163.377C21.2478 163.001 20.1843 162.315 19.3515 161.391C18.5188 160.467 17.9468 159.338 17.6944 158.12C17.3046 156.11 17.7834 153.853 16.6841 152.126C15.1945 149.787 13.6673 149.523 11.813 147.461C8.96199 144.291 8.86174 142.887 9.05001 137.016C9.12948 134.533 5.70292 131.732 6.90958 129.345C7.97295 127.244 11.2049 127.233 13.0377 128.712C14.8706 130.191 15.6757 132.561 16.4743 134.778C17.2729 136.995 18.2797 139.339 20.3043 140.542C21.5183 141.263 23.1078 141.597 23.7785 142.84C24.3164 143.839 24.0458 145.058 23.8291 146.173C23.2848 148.974 23.4213 152.39 25.7708 154.008C26.8307 154.738 28.2188 154.989 29.0902 155.937C29.9519 156.873 30.0908 158.261 30.0326 159.533C29.9179 161.977 29.2447 164.363 28.0645 166.507" fill="#DEE8F5"/>
<path d="M25.266 165.328C23.1508 162.91 22.8517 159.079 24.566 156.362C26.0044 154.082 28.685 152.512 29.2479 149.875C29.7491 147.527 28.3588 145.1 28.775 142.735C29.2276 140.163 31.6022 138.476 33.4886 136.671C33.9794 136.232 34.4016 135.722 34.741 135.158C35.5706 133.664 35.3393 131.831 35.6212 130.146C36.1606 126.917 38.8189 124.055 42.0464 123.521C44.8771 123.053 46.9048 124.68 46.9048 127.676C46.9048 131.226 44.247 132.746 42.8912 134.354C40.9439 136.681 39.9104 139.638 39.984 142.671C40.0796 146.06 41.5217 149.668 39.9811 152.686C38.8505 154.902 36.4357 156.083 34.5381 157.691C33.1042 158.92 31.937 160.43 31.1082 162.127C30.2795 163.825 29.8068 165.674 29.7193 167.561" fill="#F3F5FD"/>
<path d="M34.3956 159.763H17.3262V176.84H34.3956V159.763Z" fill="#0CBC8B"/>
<g opacity="0.42">
<path d="M34.3956 163.093H17.3262V166.426H34.3956V163.093Z" fill="white"/>
</g>
</g>
<g filter="url(#filter0_d_884_18716)">
<path d="M169.5 9H83.5C80.7386 9 78.5 11.2386 78.5 14V44C78.5 46.7614 80.7386 49 83.5 49H169.5C172.261 49 174.5 46.7614 174.5 44V14C174.5 11.2386 172.261 9 169.5 9Z" fill="#A073F0"/>
</g>
<path d="M116.5 20H90.5C88.8431 20 87.5 21.3431 87.5 23C87.5 24.6569 88.8431 26 90.5 26H116.5C118.157 26 119.5 24.6569 119.5 23C119.5 21.3431 118.157 20 116.5 20Z" fill="#F4E4FF"/>
<path d="M134.5 33H90.5C88.8431 33 87.5 34.3431 87.5 36C87.5 37.6569 88.8431 39 90.5 39H134.5C136.157 39 137.5 37.6569 137.5 36C137.5 34.3431 136.157 33 134.5 33Z" fill="white"/>
<defs>
<filter id="filter0_d_884_18716" x="72.5" y="0" width="108" height="52" filterUnits="userSpaceOnUse" color-interpolation-filters="sRGB">
<feFlood flood-opacity="0" result="BackgroundImageFix"/>
<feColorMatrix in="SourceAlpha" type="matrix" values="0 0 0 0 0 0 0 0 0 0 0 0 0 0 0 0 0 0 127 0" result="hardAlpha"/>
<feOffset dy="-3"/>
<feGaussianBlur stdDeviation="3"/>
<feColorMatrix type="matrix" values="0 0 0 0 0.788235 0 0 0 0 0.803922 0 0 0 0 0.85098 0 0 0 0.349 0"/>
<feBlend mode="normal" in2="BackgroundImageFix" result="effect1_dropShadow_884_18716"/>
<feBlend mode="normal" in="SourceGraphic" in2="effect1_dropShadow_884_18716" result="shape"/>
</filter>
<clipPath id="clip0_884_18716">
<rect width="253" height="161" fill="white" transform="translate(0 16)"/>
</clipPath>
</defs>
</svg>
