<svg width="520" height="20" viewBox="0 0 520 20" fill="none" xmlns="http://www.w3.org/2000/svg">
<rect y="9" width="232" height="2" rx="1" fill="url(#paint0_linear_265_13923)"/>
<path d="M253.24 15.098C252.335 15.098 251.509 14.888 250.762 14.468C250.016 14.0387 249.423 13.446 248.984 12.69C248.555 11.9247 248.34 11.066 248.34 10.114C248.34 9.162 248.555 8.308 248.984 7.552C249.423 6.78667 250.016 6.194 250.762 5.774C251.509 5.34467 252.335 5.13 253.24 5.13C254.155 5.13 254.986 5.34467 255.732 5.774C256.479 6.194 257.067 6.782 257.496 7.538C257.926 8.294 258.14 9.15267 258.14 10.114C258.14 11.0753 257.926 11.934 257.496 12.69C257.067 13.446 256.479 14.0387 255.732 14.468C254.986 14.888 254.155 15.098 253.24 15.098ZM253.24 13.992C253.922 13.992 254.533 13.8333 255.074 13.516C255.625 13.1987 256.054 12.746 256.362 12.158C256.68 11.57 256.838 10.8887 256.838 10.114C256.838 9.33 256.68 8.64867 256.362 8.07C256.054 7.482 255.63 7.02933 255.088 6.712C254.547 6.39467 253.931 6.236 253.24 6.236C252.55 6.236 251.934 6.39467 251.392 6.712C250.851 7.02933 250.422 7.482 250.104 8.07C249.796 8.64867 249.642 9.33 249.642 10.114C249.642 10.8887 249.796 11.57 250.104 12.158C250.422 12.746 250.851 13.1987 251.392 13.516C251.943 13.8333 252.559 13.992 253.24 13.992ZM264.96 15L262.636 11.01H261.096V15H259.822V5.242H262.972C263.709 5.242 264.33 5.368 264.834 5.62C265.347 5.872 265.73 6.21267 265.982 6.642C266.234 7.07133 266.36 7.56133 266.36 8.112C266.36 8.784 266.164 9.37667 265.772 9.89C265.389 10.4033 264.811 10.744 264.036 10.912L266.486 15H264.96ZM261.096 9.988H262.972C263.663 9.988 264.181 9.82 264.526 9.484C264.871 9.13867 265.044 8.68133 265.044 8.112C265.044 7.53333 264.871 7.08533 264.526 6.768C264.19 6.45067 263.672 6.292 262.972 6.292H261.096V9.988Z" fill="#53545C"/>
<rect x="283" y="9" width="236" height="2" rx="1" fill="url(#paint1_linear_265_13923)"/>
<defs>
<linearGradient id="paint0_linear_265_13923" x1="232" y1="10" x2="0" y2="10" gradientUnits="userSpaceOnUse">
<stop stop-color="#F3F6F8"/>
<stop offset="1" stop-opacity="0"/>
</linearGradient>
<linearGradient id="paint1_linear_265_13923" x1="519" y1="10" x2="283" y2="10" gradientUnits="userSpaceOnUse">
<stop stop-opacity="0"/>
<stop offset="1" stop-color="#F3F6F8"/>
</linearGradient>
</defs>
</svg>
