<?xml version="1.0" encoding="UTF-8"?>
<!DOCTYPE svg PUBLIC "-//W3C//DTD SVG 1.1//EN" "http://www.w3.org/Graphics/SVG/1.1/DTD/svg11.dtd">
<!-- Creator: CorelDRAW -->
<svg xmlns="http://www.w3.org/2000/svg" xml:space="preserve" width="1.58195in" height="1.24112in" version="1.1" style="shape-rendering:geometricPrecision; text-rendering:geometricPrecision; image-rendering:optimizeQuality; fill-rule:evenodd; clip-rule:evenodd"
viewBox="0 0 189.91 148.99"
 xmlns:xlink="http://www.w3.org/1999/xlink"
 xmlns:xodm="http://www.corel.com/coreldraw/odm/2003">
 <defs>
  <style type="text/css">
   <![CDATA[
    .fil2 {fill:none}
    .fil1 {fill:#FEFEFE;fill-rule:nonzero}
    .fil0 {fill:url(#id1)}
   ]]>
  </style>
   <clipPath id="id0">
    <path d="M24.79 0l140.32 0c13.64,0 24.79,11.16 24.79,24.79l0 99.4c0,13.64 -11.16,24.79 -24.79,24.79l-140.32 0c-13.64,0 -24.79,-11.16 -24.79,-24.79l0 -99.4c0,-13.64 11.16,-24.79 24.79,-24.79z"/>
   </clipPath>
  <linearGradient id="id1" gradientUnits="userSpaceOnUse" x1="65.64" y1="2.54" x2="123.99" y2="147.14">
   <stop offset="0" style="stop-opacity:1; stop-color:#A073F0"/>
   <stop offset="1" style="stop-opacity:1; stop-color:#636AD8"/>
  </linearGradient>
 </defs>
 <g id="Layer_x0020_1">
  <metadata id="CorelCorpID_0Corel-Layer"/>
  <path class="fil0" d="M24.79 0l140.32 0c13.64,0 24.79,11.16 24.79,24.79l0 99.4c0,13.64 -11.16,24.79 -24.79,24.79l-140.32 0c-13.64,0 -24.79,-11.16 -24.79,-24.79l0 -99.4c0,-13.64 11.16,-24.79 24.79,-24.79z"/>
  <g>
  </g>
  <g style="clip-path:url(#id0)">
   <g id="_2177142854720">
    <path id="_1" class="fil1" d="M111.29 119.45c-6.91,0 -13.21,-1.68 -18.9,-5.08 -5.67,-3.4 -10.2,-7.91 -13.54,-13.54 -1.73,-2.92 -3.02,-6.01 -3.88,-9.27l13.42 0c0.41,0.98 0.89,1.93 1.44,2.85 2.24,3.76 5.21,6.74 8.97,8.97 3.74,2.21 7.91,3.32 12.49,3.32 4.58,0 8.76,-1.11 12.51,-3.32 3.76,-2.24 6.74,-5.21 8.97,-8.97 0.55,-0.92 1.02,-1.87 1.44,-2.85l13.47 0c-0.85,3.22 -2.14,6.29 -3.88,9.19 -3.38,5.69 -7.94,10.21 -13.63,13.61 -5.71,3.4 -12.01,5.08 -18.88,5.08l0 0zm-63.24 -154.44l12.81 0 0 108.58 -12.81 0 0 -108.58zm12.81 126.56l0 3.85c0,4.62 1.16,8.8 3.36,12.53 2.19,3.72 5.17,6.7 8.94,8.94 3.74,2.22 7.91,3.32 12.49,3.32l0 12.73c-6.87,0 -13.14,-1.67 -18.83,-5.04 -5.69,-3.37 -10.21,-7.89 -13.58,-13.52 -3.37,-5.64 -5.19,-11.91 -5.19,-18.83l0 -3.99 12.81 0zm12.83 -17.98l0 -108.58 12.81 0 0 88.69c3.32,-2.98 7.08,-5.29 11.32,-6.95 4.22,-1.66 8.71,-2.48 13.46,-2.48 6.87,0 13.17,1.68 18.88,5.08 5.69,3.4 10.25,7.94 13.63,13.65 1.99,3.34 3.39,6.87 4.22,10.6l-13.28 0c-0.51,-1.47 -1.17,-2.88 -1.97,-4.24 -2.24,-3.74 -5.21,-6.74 -8.97,-8.96 -3.74,-2.24 -7.92,-3.34 -12.51,-3.34 -4.58,0 -8.75,1.11 -12.49,3.34 -3.76,2.21 -6.74,5.21 -8.97,8.96 -0.8,1.36 -1.46,2.77 -1.97,4.24l-14.17 0 0 -0z"/>
   </g>
  </g>
  <path class="fil2" d="M24.79 0l140.32 0c13.64,0 24.79,11.16 24.79,24.79l0 99.4c0,13.64 -11.16,24.79 -24.79,24.79l-140.32 0c-13.64,0 -24.79,-11.16 -24.79,-24.79l0 -99.4c0,-13.64 11.16,-24.79 24.79,-24.79z"/>
  <path class="fil2" d="M24.79 0l140.32 0c13.64,0 24.79,11.16 24.79,24.79l0 99.4c0,13.64 -11.16,24.79 -24.79,24.79l-140.32 0c-13.64,0 -24.79,-11.16 -24.79,-24.79l0 -99.4c0,-13.64 11.16,-24.79 24.79,-24.79z"/>
 </g>
</svg>
